<?xml version="1.0" encoding="UTF-8" standalone="no" ?>
<!DOCTYPE svg PUBLIC "-//W3C//DTD SVG 1.1//EN" "http://www.w3.org/Graphics/SVG/1.1/DTD/svg11.dtd">
<svg xmlns="http://www.w3.org/2000/svg" xmlns:xlink="http://www.w3.org/1999/xlink" version="1.1" width="1080" height="1080" viewBox="0 0 1080 1080" xml:space="preserve">
<desc>Created with Fabric.js 5.2.4</desc>
<defs>
</defs>
<g transform="matrix(1 0 0 1 540 540)" id="d66896a2-b554-49a3-a435-0eaae7a0a800"  >
<rect style="stroke: none; stroke-width: 1; stroke-dasharray: none; stroke-linecap: butt; stroke-dashoffset: 0; stroke-linejoin: miter; stroke-miterlimit: 4; fill: rgb(255,255,255); fill-rule: nonzero; opacity: 1; visibility: hidden;" vector-effect="non-scaling-stroke"  x="-540" y="-540" rx="0" ry="0" width="1080" height="1080" />
</g>
<g transform="matrix(1 0 0 1 540 540)" id="7db3304e-087d-4513-9e82-b43eb65baf2e"  >
</g>
<g transform="matrix(1.25 0 0 1.25 540 540)"  >
<g style="" vector-effect="non-scaling-stroke"   >
		<g transform="matrix(1 0 0 1 -490 -490)"  >
<rect style="stroke: none; stroke-width: 1; stroke-dasharray: none; stroke-linecap: butt; stroke-dashoffset: 0; stroke-linejoin: miter; stroke-miterlimit: 4; fill: rgb(223,223,242); fill-rule: nonzero; opacity: 1;" vector-effect="non-scaling-stroke"  x="-50" y="-50" rx="0" ry="0" width="100" height="100" />
</g>
		<g transform="matrix(1 0 0 1 0 0)"  >
<rect style="stroke: none; stroke-width: 1; stroke-dasharray: none; stroke-linecap: butt; stroke-dashoffset: 0; stroke-linejoin: miter; stroke-miterlimit: 4; fill: rgb(223,223,242); fill-rule: nonzero; opacity: 1; visibility: hidden;" vector-effect="non-scaling-stroke"  x="-540" y="-540" rx="0" ry="0" width="1080" height="1080" />
</g>
		<g transform="matrix(0.13 0 0 -0.13 -6.46 27.5)"  >
<path style="stroke: none; stroke-width: 1; stroke-dasharray: none; stroke-linecap: butt; stroke-dashoffset: 0; stroke-linejoin: miter; stroke-miterlimit: 4; fill: rgb(223,223,242); fill-rule: nonzero; opacity: 1;" vector-effect="non-scaling-stroke"  transform=" translate(-2559.57, -2554.5)" d="M 1128 4873 C 931 4682 788 4462 701 4216 C 644 4055 628 3962 622 3769 C 618 3616 620 3584 638 3514 C 692 3300 811 3174 1072 3057 C 1169 3013 1306 2965 1583 2880 C 1925 2774 2017 2720 2044 2609 C 2052 2575 2023 2537 1989 2538 C 1976 2538 1932 2559 1891 2585 C 1706 2705 1460 2780 1253 2780 L 1210 2780 L 1232 2723 C 1314 2500 1453 2284 1558 2215 C 1600 2188 1611 2185 1685 2186 C 1753 2187 1845 2204 1905 2226 C 1918 2231 1920 2218 1920 2137 C 1920 1867 1847 1512 1731 1215 L 1683 1091 L 1801 984 C 2037 773 2305 483 2488 242 L 2559 149 L 2621 232 C 2753 407 2882 553 3085 756 C 3200 872 3326 994 3364 1028 L 3433 1088 L 3377 1237 C 3256 1559 3200 1840 3200 2125 L 3200 2228 L 3273 2209 C 3378 2181 3451 2175 3506 2190 C 3565 2207 3653 2287 3714 2378 C 3767 2459 3849 2620 3884 2714 L 3910 2783 L 3815 2776 C 3582 2760 3409 2703 3227 2583 C 3189 2558 3147 2537 3132 2537 C 3104 2538 3070 2571 3070 2599 C 3070 2629 3127 2707 3172 2737 C 3231 2778 3391 2838 3600 2900 C 4120 3053 4336 3178 4435 3384 C 4487 3494 4503 3593 4498 3779 C 4486 4174 4323 4536 4022 4839 C 3955 4907 3897 4960 3894 4957 C 3891 4954 3908 4914 3933 4868 C 3993 4758 4090 4539 4133 4415 C 4194 4240 4239 4002 4240 3860 L 4240 3795 L 4173 3907 C 3955 4276 3637 4541 3255 4673 C 3163 4705 3068 4728 3080 4717 C 3083 4714 3135 4675 3195 4630 C 3424 4458 3639 4253 3779 4070 L 3852 3975 L 3847 3800 C 3842 3608 3833 3567 3773 3444 C 3706 3304 3511 3115 3334 3015 C 3290 2990 3250 2970 3247 2970 C 3243 2970 3246 2985 3254 3003 C 3284 3075 3303 3186 3302 3290 C 3302 3475 3254 3610 3149 3723 L 3091 3785 L 3120 3714 C 3136 3675 3157 3617 3165 3584 C 3187 3502 3187 3334 3165 3245 C 3147 3171 3093 3021 3080 3006 C 3075 3002 3067 3023 3060 3054 C 3041 3147 2977 3262 2904 3335 C 2868 3371 2835 3400 2830 3400 C 2825 3400 2837 3367 2856 3327 C 2898 3237 2920 3140 2920 3035 C 2920 2940 2910 2900 2872 2840 C 2813 2747 2670 2707 2472 2729 C 2351 2742 2297 2768 2253 2834 C 2210 2897 2198 2946 2199 3049 C 2200 3147 2220 3238 2261 3329 C 2277 3364 2288 3395 2285 3398 C 2275 3408 2144 3263 2115 3210 C 2099 3180 2076 3119 2065 3075 L 2043 2996 L 2017 3054 C 1913 3280 1906 3514 1995 3716 C 2008 3746 2015 3770 2010 3770 C 1993 3770 1922 3679 1887 3612 C 1827 3498 1815 3443 1816 3285 C 1816 3156 1818 3138 1846 3058 C 1863 3009 1873 2970 1870 2970 C 1866 2970 1826 2992 1780 3020 C 1561 3152 1414 3299 1340 3464 C 1291 3572 1278 3647 1276 3826 L 1275 3987 L 1333 4062 C 1487 4264 1663 4435 1905 4618 C 2031 4713 2041 4722 2006 4716 C 1940 4703 1790 4650 1690 4604 C 1399 4467 1124 4209 939 3898 C 865 3773 869 3773 875 3885 C 892 4181 979 4470 1151 4808 C 1194 4891 1227 4960 1224 4960 C 1221 4960 1178 4921 1128 4873 z M 1093 3454 C 1123 3379 1177 3293 1232 3234 L 1274 3189 L 1216 3214 C 1127 3253 1044 3307 982 3365 L 925 3418 L 944 3472 C 954 3501 978 3559 997 3600 L 1032 3675 L 1050 3595 C 1060 3551 1079 3487 1093 3454 z M 4146 3544 C 4182 3456 4191 3424 4183 3412 C 4163 3379 4038 3282 3972 3247 C 3848 3181 3843 3182 3905 3255 C 3987 3352 4042 3471 4070 3613 C 4076 3644 4085 3668 4089 3665 C 4094 3663 4119 3608 4146 3544 z M 3060 2265 C 3060 2193 3035 2152 2967 2115 C 2935 2097 2913 2081 2916 2077 C 2927 2066 2898 1966 2855 1870 C 2801 1750 2794 1711 2815 1629 C 2837 1544 2850 1377 2837 1328 C 2832 1307 2810 1270 2789 1246 C 2738 1188 2674 1166 2565 1166 C 2450 1166 2395 1184 2339 1240 C 2263 1316 2257 1381 2302 1619 C 2313 1676 2318 1735 2315 1749 C 2312 1763 2289 1818 2266 1870 C 2216 1980 2191 2072 2208 2078 C 2215 2080 2193 2095 2160 2111 C 2083 2150 2060 2186 2060 2269 C 2060 2326 2061 2330 2083 2330 C 2117 2330 2202 2285 2254 2239 C 2311 2188 2369 2073 2407 1935 C 2438 1822 2537 1615 2560 1615 C 2583 1615 2672 1803 2708 1929 C 2743 2050 2792 2157 2836 2209 C 2890 2274 3036 2353 3052 2327 C 3056 2320 3060 2292 3060 2265 z" stroke-linecap="round" />
</g>
		<g transform="matrix(0.13 0 0 -0.13 -0.75 192.84)"  >
<path style="stroke: none; stroke-width: 1; stroke-dasharray: none; stroke-linecap: butt; stroke-dashoffset: 0; stroke-linejoin: miter; stroke-miterlimit: 4; fill: rgb(223,223,242); fill-rule: nonzero; opacity: 1;" vector-effect="non-scaling-stroke"  transform=" translate(-2559.31, -1371.12)" d="M 2383 1475 C 2330 1413 2332 1386 2396 1311 C 2479 1212 2641 1213 2725 1312 C 2770 1366 2783 1405 2766 1438 C 2735 1499 2725 1502 2559 1504 L 2408 1505 L 2383 1475 z" stroke-linecap="round" />
</g>
</g>
</g>
<g transform="matrix(NaN NaN NaN NaN 0 0)"  >
<g style=""   >
</g>
</g>
<g transform="matrix(NaN NaN NaN NaN 0 0)"  >
<g style=""   >
</g>
</g>
<g transform="matrix(NaN NaN NaN NaN 0 0)"  >
<g style=""   >
</g>
</g>
</svg>