<svg id="SvgjsSvg1001" width="288" height="288" xmlns="http://www.w3.org/2000/svg" version="1.1" xmlns:xlink="http://www.w3.org/1999/xlink" xmlns:svgjs="http://svgjs.com/svgjs"><defs id="SvgjsDefs1002"></defs><g id="SvgjsG1008"><svg xmlns="http://www.w3.org/2000/svg" xmlns:xlink="http://www.w3.org/1999/xlink" viewBox="0 0 179.129 137.198" width="288" height="288"><defs><linearGradient id="c"><stop offset="0" stop-color="#a7ff83" class="stopColorab0000 svgShape"></stop><stop offset="1" stop-color="#17b978" class="stopColor7f0000 svgShape"></stop></linearGradient><linearGradient id="d"><stop offset="0" stop-color="#a7ff83" class="stopColorab0000 svgShape"></stop><stop offset="1" stop-color="#17b978" class="stopColor7f0000 svgShape"></stop></linearGradient><linearGradient id="b"><stop offset="0" stop-color="#a7ff83" class="stopColorab0000 svgShape"></stop><stop offset="1" stop-color="#086972" class="stopColor790000 svgShape"></stop></linearGradient><linearGradient id="a"><stop offset="0" stop-color="#000000" class="stopColor000000 svgShape"></stop><stop offset="1" stop-opacity="0" stop-color="#000000" class="stopColor000000 svgShape"></stop></linearGradient><linearGradient id="f" x1="11.437" x2="190.566" y1="145.707" y2="145.707" gradientUnits="userSpaceOnUse" xlink:href="#a"></linearGradient><linearGradient id="e" x1="115.013" x2="86.991" y1="57.245" y2="234.169" gradientUnits="userSpaceOnUse" xlink:href="#b"></linearGradient><linearGradient id="g" x1="57.611" x2="32.562" y1="161.391" y2="180.962" gradientUnits="userSpaceOnUse" xlink:href="#c"></linearGradient><linearGradient id="h" x1="148.555" x2="164.927" y1="157.552" y2="184.8" gradientUnits="userSpaceOnUse" xlink:href="#d"></linearGradient></defs><g transform="translate(-11.437 -77.108)"><path fill="url(#e)" stroke="url(#f)" stroke-linecap="round" stroke-linejoin="round" stroke-width=".1" d="m 101.00107,77.163249 c -3.884661,-0.08829 -12.102104,0.997872 -12.102104,0.997872 -21.475531,17.480083 -77.411812,82.905529 -77.411812,82.905529 4.210985,9.28724 9.274327,17.12192 14.572237,23.6797 -0.250139,-6.83813 1.318609,-24.85587 2.192631,-28.47682 1.236028,-5.12069 0.794634,-5.03265 5.827035,-9.53533 5.032402,-4.50268 40.435775,-28.60498 40.435775,-28.60498 -11.653983,19.59988 -35.670691,79.93259 -35.670691,79.93259 13.711166,12.29239 25.083223,16.19385 25.083223,16.19385 2.497153,-38.95561 37.073706,-107.87662 37.073706,-107.87662 0,0 34.57706,68.92101 37.07422,107.87662 0,0 12.1915,-4.62714 25.89661,-16.90957 0,0 -24.83002,-59.61699 -36.48407,-79.21687 0,0 35.40334,24.1023 40.43577,28.60498 5.03243,4.50268 4.591,4.41464 5.82703,9.53533 0.87402,3.62095 2.44278,21.63869 2.19264,28.47682 5.29794,-6.55778 10.36175,-14.39246 14.57275,-23.6797 0,0 -55.93667,-65.425446 -77.41233,-82.905529 0,0 -8.21793,-1.08616 -12.10262,-0.997872 z" paint-order="stroke fill markers"></path><path fill="url(#g)" stroke="#071a52" stroke-linecap="round" stroke-linejoin="round" stroke-width=".1" d="m 60.930575,132.09948 c -0.343483,-0.43508 -25.202618,17.78775 -26.805805,21.21619 -1.858011,3.97338 -5.532448,28.47716 -4.783201,56.94476 0,0 7.866035,-37.20762 31.589006,-78.16095 z" paint-order="stroke fill markers" class="colorStroke000 svgStroke"></path><path fill="url(#h)" stroke="#071a52" stroke-linecap="round" stroke-linejoin="round" stroke-width=".1" d="m 140.89668,132.09948 c 0.34348,-0.43508 25.20276,17.78775 26.80596,21.21619 1.85802,3.97338 5.53248,28.47716 4.78322,56.94476 0,0 -7.86607,-37.20762 -31.58918,-78.16095 z" paint-order="stroke fill markers" class="colorStroke000 svgStroke"></path></g></svg></g></svg>