<svg id="SvgjsSvg1789" width="288" height="288" xmlns="http://www.w3.org/2000/svg" version="1.1" xmlns:xlink="http://www.w3.org/1999/xlink" xmlns:svgjs="http://svgjs.com/svgjs"><path id="SvgjsPath1961" d="M 144,0 C 5,0 0,5 0,144 0,283 5,288 144,288 283,288 288,283 288,144 288,5 283,0 144,0 Z" transform="matrix(0.7916,0,0,0.7916,30.009600000000006,30.009600000000006)" fill="#000000"></path><defs id="SvgjsDefs1790"></defs><g id="SvgjsG1791" transform="matrix(0.4652,0,0,0.4652,78.93647663383484,62.10524535827637)"><svg xmlns="http://www.w3.org/2000/svg" viewBox="0 0 200 200" width="288" height="288"><path fill="#edff66" d="M0 0 C0 0.66 0 1.32 0 2 C0.56605957 2.11625732 1.13211914 2.23251465 1.71533203 2.35229492 C4.23941445 3.06787417 6.25886153 4.09518536 8.5546875 5.36328125 C9.41707031 5.83830078 10.27945313 6.31332031 11.16796875 6.80273438 C12.06128906 7.30095703 12.95460937 7.79917969 13.875 8.3125 C15.20337891 9.04243164 15.20337891 9.04243164 16.55859375 9.78710938 C21.18118337 12.34641197 25.66018933 14.98504902 30 18 C29.34 19.98 28.68 21.96 28 24 C31.10540926 25.21081851 31.10540926 25.21081851 35 25 C35.33 24.34 35.66 23.68 36 23 C40.12797305 23.60705486 43.37438822 24.93999331 47 27 C47.33 27.66 47.66 28.32 48 29 C49.64807042 29.7113973 51.31961953 30.36869684 53 31 C55.09383072 31.97782958 57.17697369 32.97880477 59.25 34 C60.83554687 34.7734375 60.83554687 34.7734375 62.453125 35.5625 C65 37 65 37 66 39 C67.64551962 39.71727778 69.31422289 40.38325228 71 41 C71.66 41.33 72.32 41.66 73 42 C72.67 43.32 72.34 44.64 72 46 C67.78335321 44.00667606 63.83692605 41.96655867 60 39.3125 C53.30065529 34.71630055 46.10541686 30.9232363 39 27 C37.68 28.32 36.36 29.64 35 31 C30.76570244 29.68938409 26.92592596 28.05643741 23 26 C23.33 23.69 23.66 21.38 24 19 C17.41678691 14.85182154 10.79293609 10.79628085 4 7 C2.96875 6.4225 1.9375 5.845 0.875 5.25 C-2.04025829 3.9824964 -3.86582395 3.72345505 -7 4 C-7.37125 5.11375 -7.37125 5.11375 -7.75 6.25 C-9 9 -9 9 -10.78125 10.7265625 C-13.5850445 13.59946461 -15.60979864 16.74390013 -17.75 20.125 C-18.16121094 20.75792969 -18.57242188 21.39085938 -18.99609375 22.04296875 C-21.24826418 25.26412814 -21.24826418 25.26412814 -22 29 C-22.66 29 -23.32 29 -24 29 C-24.268125 29.70125 -24.53625 30.4025 -24.8125 31.125 C-26.0681449 34.1649824 -27.50235123 37.0727774 -29 40 C-25.32608359 42.34799169 -22.22012352 42.17508211 -17.9375 42.0625 C-11.29354207 41.90215264 -11.29354207 41.90215264 -8 43 C-8 44.65 -8 46.3 -8 48 C-7.01 48 -6.02 48 -5 48 C-5 47.01 -5 46.02 -5 45 C-5.66 44.67 -6.32 44.34 -7 44 C-3.45986775 41.63991183 -1.98878045 41.76536356 2.19921875 41.8046875 C3.40771484 41.81113281 4.61621094 41.81757812 5.86132812 41.82421875 C7.12396484 41.84097656 8.38660156 41.85773438 9.6875 41.875 C11.59885742 41.88853516 11.59885742 41.88853516 13.54882812 41.90234375 C16.69940627 41.92594359 19.84960983 41.95886806 23 42 C23.28875 41.360625 23.5775 40.72125 23.875 40.0625 C25 38 25 38 27 37 C29.00800456 37.28112064 31.01014051 37.61067967 33 38 C32.74438677 40.3431213 32.40729228 42.67843403 32 45 C31.01 45.495 31.01 45.495 30 46 C29.67 46.99 29.34 47.98 29 49 C29.66 49.33 30.32 49.66 31 50 C30.649375 50.86625 30.29875 51.7325 29.9375 52.625 C28.53824728 57.49792208 29.2482092 62.16798425 29.72265625 67.15234375 C30.09866581 72.36881446 29.88434476 77.49695262 29.64453125 82.72265625 C30.07357049 86.67830378 31.33972917 88.12389587 34 91 C36.47854317 96.19313807 35.90442303 100.50013019 35 106 C34.01 106.33 33.02 106.66 32 107 C31.34 106.34 30.68 105.68 30 105 C30.66 105 31.32 105 32 105 C32.12469099 99.42169984 32.12469099 99.42169984 31 94 C29.35314539 97.29370921 29.54605834 100.93002032 29.28125 104.56640625 C29 107 29 107 28 108 C25.13732433 108.07325168 22.299281 108.09238205 19.4375 108.0625 C18.63119141 108.05798828 17.82488281 108.05347656 16.99414062 108.04882812 C14.99606244 108.03700518 12.99802217 108.01906914 11 108 C10.11800435 104.06437237 9.72181817 100.20857125 9.4375 96.1875 C9.35371094 95.02605469 9.26992187 93.86460938 9.18359375 92.66796875 C9.12300781 91.78753906 9.06242188 90.90710938 9 90 C8.54625 90.639375 8.0925 91.27875 7.625 91.9375 C6 94 6 94 4 95 C4.14107747 96.45880109 4.28802415 97.91703551 4.4375 99.375 C4.55931641 100.59316406 4.55931641 100.59316406 4.68359375 101.8359375 C4.89090114 104.04272805 4.89090114 104.04272805 6 106 C4.68 106.33 3.36 106.66 2 107 C0.45112555 102.15976733 0.40239994 97.66000017 2.125 92.875 C4 90 4 90 7.10546875 88.11328125 C9.44125039 86.21917468 9.95102368 85.30234714 10.43945312 82.28710938 C10.48263953 78.94530437 10.3740322 75.64935388 10.1875 72.3125 C10.0845325 70.03831668 9.99403256 67.7635233 9.91796875 65.48828125 C9.86406982 64.48321533 9.8101709 63.47814941 9.75463867 62.44262695 C9.87609253 61.23352661 9.87609253 61.23352661 10 60 C13.6441774 57.5705484 15.71241272 57.83820425 20 58 C18.68 57.01 17.36 56.02 16 55 C16.33 54.01 16.66 53.02 17 52 C16.34 51.34 15.68 50.68 15 50 C15.66 48.35 16.32 46.7 17 45 C15.68 45.33 14.36 45.66 13 46 C13.165 46.94875 13.33 47.8975 13.5 48.875 C14 52 14 52 14 54 C14.33 54.99 14.66 55.98 15 57 C12.03 57 9.06 57 6 57 C6 53.04 6 49.08 6 45 C4.68 45.33 3.36 45.66 2 46 C2 48.64 2 51.28 2 54 C2.66 54.33 3.32 54.66 4 55 C4 55.66 4 56.32 4 57 C1.03 57 -1.94 57 -5 57 C-5.12375 56.195625 -5.2475 55.39125 -5.375 54.5625 C-5.684375 53.2940625 -5.684375 53.2940625 -6 52 C-6.66 51.67 -7.32 51.34 -8 51 C-8 52.65 -8 54.3 -8 56 C-9.98 56.99 -9.98 56.99 -12 58 C-10.91332031 58.23783203 -10.91332031 58.23783203 -9.8046875 58.48046875 C-3.05157016 60.11022107 2.28878513 61.61890193 6.12890625 67.82421875 C7.82590181 72.06290272 7.51959121 76.52502072 7 81 C4.67216151 85.92427374 1.8301052 88.54257806 -3 91 C-14.9532567 94.52337165 -14.9532567 94.52337165 -18 93 C-17.91621094 94.21558594 -17.83242187 95.43117188 -17.74609375 96.68359375 C-17.64295297 98.26821121 -17.54010339 99.85284765 -17.4375 101.4375 C-17.35338867 102.64116211 -17.35338867 102.64116211 -17.26757812 103.86914062 C-17.1383705 105.91062111 -17.0648727 107.95546369 -17 110 C-18.91881543 111.91881543 -22.38032042 111.41702876 -25 111.5625 C-25.73605469 111.6042334 -26.47210938 111.6459668 -27.23046875 111.68896484 C-34.15194812 112.03475653 -41.07076631 112.10810692 -48 112.125 C-49.04929687 112.12959229 -50.09859375 112.13418457 -51.1796875 112.13891602 C-57.20181319 112.12694455 -63.02835659 111.7837782 -69 111 C-69.66 109.35 -70.32 107.7 -71 106 C-70.34 106 -69.68 106 -69 106 C-69 95.11 -69 84.22 -69 73 C-72.3 73 -75.6 73 -79 73 C-79 68.38 -79 63.76 -79 59 C-74.55238117 58.25873019 -70.93743229 57.88125032 -66.5078125 57.90234375 C-65.30898437 57.90556641 -64.11015625 57.90878906 -62.875 57.91210938 C-61.01875 57.92467773 -61.01875 57.92467773 -59.125 57.9375 C-57.86429687 57.94201172 -56.60359375 57.94652344 -55.3046875 57.95117188 C-52.20307614 57.9629204 -49.10156275 57.97934833 -46 58 C-46 57.34 -46 56.68 -46 56 C-45.34 56 -44.68 56 -44 56 C-44 55.34 -44 54.68 -44 54 C-44.94875 54.04125 -45.8975 54.0825 -46.875 54.125 C-50 54 -50 54 -52 52 C-52.125 48.375 -52.125 48.375 -52 45 C-53.485 45.495 -53.485 45.495 -55 46 C-55.04125 47.258125 -55.0825 48.51625 -55.125 49.8125 C-55.14820312 50.52019531 -55.17140625 51.22789063 -55.1953125 51.95703125 C-55.13254462 54.31359719 -55.13254462 54.31359719 -53 57 C-55.97 57 -58.94 57 -62 57 C-62 53.04 -62 49.08 -62 45 C-62.99 45 -63.98 45 -65 45 C-65.33 46.65 -65.66 48.3 -66 50 C-68.31 49.67 -70.62 49.34 -73 49 C-72.505 51.475 -72.505 51.475 -72 54 C-71.34 53.34 -70.68 52.68 -70 52 C-67.375 51.875 -67.375 51.875 -65 52 C-65 53.32 -65 54.64 -65 56 C-67.47775095 57.23887548 -69.23653707 57.16741669 -72 57.1875 C-73.3303125 57.20876953 -73.3303125 57.20876953 -74.6875 57.23046875 C-77 57 -77 57 -79 55 C-79.25 51.5 -79.25 51.5 -79 48 C-78.34 47.34 -77.68 46.68 -77 46 C-79.97 45.505 -79.97 45.505 -83 45 C-82.85831863 46.43791516 -82.71148957 47.8753237 -82.5625 49.3125 C-82.48128906 50.11300781 -82.40007812 50.91351563 -82.31640625 51.73828125 C-82.04734307 54.16087179 -82.04734307 54.16087179 -81 57 C-83.64 57 -86.28 57 -89 57 C-89 55.35 -89 53.7 -89 52 C-90.32 52 -91.64 52 -93 52 C-93 52.66 -93 53.32 -93 54 C-92.34 54.33 -91.68 54.66 -91 55 C-91 55.66 -91 56.32 -91 57 C-93.64 57 -96.28 57 -99 57 C-100.32 54.36 -101.64 51.72 -103 49 C-101.515 48.505 -101.515 48.505 -100 48 C-100 47.34 -100 46.68 -100 46 C-101.65 45.67 -103.3 45.34 -105 45 C-105 47.31 -105 49.62 -105 52 C-107.31 51.67 -109.62 51.34 -112 51 C-111.505 48.03 -111.505 48.03 -111 45 C-111.99 45 -112.98 45 -114 45 C-114 47.31 -114 49.62 -114 52 C-113.37351562 52.13277344 -112.74703125 52.26554687 -112.1015625 52.40234375 C-111.28429687 52.57894531 -110.46703125 52.75554687 -109.625 52.9375 C-108.81289062 53.11152344 -108.00078125 53.28554687 -107.1640625 53.46484375 C-105 54 -105 54 -103 55 C-103 55.99 -103 56.98 -103 58 C-101.71416016 57.94779297 -101.71416016 57.94779297 -100.40234375 57.89453125 C-93.78300666 57.73781639 -88.82988446 57.746111 -83 61 C-83 65.95 -83 70.9 -83 76 C-84.32 75.34 -85.64 74.68 -87 74 C-91.12598529 71.99276392 -94.43056647 71.82080653 -99 72 C-98.67 72.99 -98.34 73.98 -98 75 C-95.37942049 76.2568548 -95.37942049 76.2568548 -92.25 77.3125 C-86.80841575 79.49301593 -83.87404941 80.84653209 -81 86 C-79.53245896 90.75624746 -79.52314387 94.71695133 -81.5 99.3125 C-84.53401529 104.5568632 -88.79900274 106.15346259 -94.25 108.25 C-102.02157431 109.80431486 -109.47927666 109.50690778 -117 107 C-118.46445037 104.07109926 -118.43083621 101.25329685 -118.6875 98 C-118.79449219 96.741875 -118.90148437 95.48375 -119.01171875 94.1875 C-119 91 -119 91 -117 89 C-115.7625 89.9590625 -115.7625 89.9590625 -114.5 90.9375 C-110.68331286 93.47591425 -107.56937557 93.9250922 -103 94 C-100.97022023 92.72780266 -100.97022023 92.72780266 -100 91 C-100.78375 90.773125 -101.5675 90.54625 -102.375 90.3125 C-109.86491345 87.60063479 -116.57290658 84.96664052 -121.12890625 78.11328125 C-122.40887322 75.0080699 -122.09204018 73.00019645 -120.97265625 69.88671875 C-118.66241173 65.40540107 -115.36156464 61.589679 -111 59 C-108.525 58.505 -108.525 58.505 -106 58 C-110.62 56.35 -115.24 54.7 -120 53 C-120 50.36 -120 47.72 -120 45 C-120.66 45 -121.32 45 -122 45 C-122 44.34 -122 43.68 -122 43 C-117.6080934 42.15694816 -113.45381007 41.87137573 -108.984375 41.8671875 C-108.32850403 41.86623077 -107.67263306 41.86527405 -106.99688721 41.86428833 C-105.61527408 41.86361141 -104.23365769 41.86543146 -102.85205078 41.86962891 C-100.76978143 41.87494946 -98.68773118 41.86968518 -96.60546875 41.86328125 C-89.34956679 41.86003098 -82.20085395 42.05523763 -75 43 C-74.71125 42.360625 -74.4225 41.72125 -74.125 41.0625 C-73 39 -73 39 -71 38 C-65.15572202 37.39219509 -61.14766741 38.00717011 -56 41 C-53.0254596 41.94390426 -50.36092762 42.10824894 -47.25 42.0625 C-46.05117187 42.04896484 -46.05117187 42.04896484 -44.828125 42.03515625 C-44.22484375 42.02355469 -43.6215625 42.01195312 -43 42 C-42.67 41.01 -42.34 40.02 -42 39 C-39.04335481 37.5216774 -36.25770263 37.93967217 -33 38 C-32.67 37.01 -32.34 36.02 -32 35 C-30.67744688 33.32476605 -29.34294481 31.65893182 -28 30 C-26.55663597 27.70130914 -25.21323232 25.42646464 -24 23 C-22.5625 20.375 -22.5625 20.375 -21 18 C-20.34 18 -19.68 18 -19 18 C-18.773125 17.360625 -18.54625 16.72125 -18.3125 16.0625 C-16.51434174 11.86679739 -14.26095979 7.96099444 -12 4 C-11.34 4 -10.68 4 -10 4 C-9.67 3.01 -9.34 2.02 -9 1 C-3.79245283 -1.26415094 -3.79245283 -1.26415094 0 0 Z M32 26 C32.66 26.66 33.32 27.32 34 28 C34 27.34 34 26.68 34 26 C33.34 26 32.68 26 32 26 Z M-67 41 C-63 42 -63 42 -63 42 Z M30 40 C29.34 40.66 28.68 41.32 28 42 C29.32 41.67 30.64 41.34 32 41 C31.34 40.67 30.68 40.34 30 40 Z M-93 45 C-92.67 46.32 -92.34 47.64 -92 49 C-91.01 48.67 -90.02 48.34 -89 48 C-89.33 47.01 -89.66 46.02 -90 45 C-90.99 45 -91.98 45 -93 45 Z M-45 45 C-46.29633621 46.06645115 -46.29633621 46.06645115 -46.0625 48.5625 C-46.041875 49.366875 -46.02125 50.17125 -46 51 C-45.01 51 -44.02 51 -43 51 C-42.67 49.35 -42.34 47.7 -42 46 C-42.99 45.67 -43.98 45.34 -45 45 Z M-36 45 C-36.05422947 46.4370809 -36.09289723 47.87475462 -36.125 49.3125 C-36.15980469 50.51326172 -36.15980469 50.51326172 -36.1953125 51.73828125 C-36.15817322 54.28388576 -36.15817322 54.28388576 -34 57 C-36.31 57 -38.62 57 -41 57 C-40.34 59.64 -39.68 62.28 -39 65 C-37.45833358 63.62514468 -37.45833358 63.62514468 -36 62 C-36 61.34 -36 60.68 -36 60 C-29.65758005 58.84683274 -23.43311296 58.90492937 -17 59 C-17 58.34 -17 57.68 -17 57 C-18.32 56.67 -19.64 56.34 -21 56 C-21.33 54.68 -21.66 53.36 -22 52 C-20.68 51.34 -19.36 50.68 -18 50 C-18 49.34 -18 48.68 -18 48 C-16.68 47.67 -15.36 47.34 -14 47 C-14 46.34 -14 45.68 -14 45 C-17.63 45 -21.26 45 -25 45 C-25 48.3 -25 51.6 -25 55 C-24.34 55 -23.68 55 -23 55 C-23 55.66 -23 56.32 -23 57 C-25.64 57 -28.28 57 -31 57 C-31 53.37 -31 49.74 -31 46 C-32.65 45.67 -34.3 45.34 -36 45 Z M-16 51 C-16 52.32 -16 53.64 -16 55 C-15.34 54.67 -14.68 54.34 -14 54 C-14.33 53.01 -14.66 52.02 -15 51 C-15.33 51 -15.66 51 -16 51 Z M-16 57 C-15.34 57.66 -14.68 58.32 -14 59 C-13.67 58.34 -13.34 57.68 -13 57 C-13.99 57 -14.98 57 -16 57 Z M-38 65 C-37.67 65.99 -37.34 66.98 -37 68 C-37 67.01 -37 66.02 -37 65 C-37.33 65 -37.66 65 -38 65 Z M-48 70 C-49.47592027 72.71041175 -49.47592027 72.71041175 -50.6875 75.9375 C-51.34298828 77.55978516 -51.34298828 77.55978516 -52.01171875 79.21484375 C-53.11146995 81.82159266 -53.11146995 81.82159266 -53 84 C-49.98138236 85.50930882 -46.87008697 85.18438844 -43.5625 85.1875 C-42.5405957 85.20586914 -42.5405957 85.20586914 -41.49804688 85.22460938 C-37.77170191 85.23555848 -36.18008429 85.12005619 -33 83 C-34.65 78.71 -36.3 74.42 -38 70 C-43.05009595 69.06213918 -43.05009595 69.06213918 -48 70 Z M-36 70 C-35.52140759 71.60433809 -35.04210442 73.20846416 -34.5625 74.8125 C-34.29566406 75.70582031 -34.02882813 76.59914063 -33.75390625 77.51953125 C-33.19612127 79.35473055 -32.60655425 81.18033726 -32 83 C-29.47636012 82.37466625 -29.47636012 82.37466625 -27 81 C-25.83022506 78.65127469 -25.83022506 78.65127469 -26 76 C-26.88998841 73.67256616 -26.88998841 73.67256616 -29 72 C-32.59067962 70.71157463 -32.59067962 70.71157463 -36 70 Z M-60 74 C-61.48362193 76.41100117 -61.48362193 76.41100117 -61 79 C-59.29118236 81.37580018 -59.29118236 81.37580018 -57 83 C-56.34 83 -55.68 83 -55 83 C-53.35 78.71 -51.7 74.42 -50 70 C-53.70373084 70 -56.97847449 71.96590113 -60 74 Z M-17 71 C-18.41577477 72.18424326 -18.41577477 72.18424326 -18.0625 75.5625 C-18.041875 76.696875 -18.02125 77.83125 -18 79 C-15.14069472 80.29417988 -15.14069472 80.29417988 -12.875 79.25 C-10.68023926 78.06395215 -10.68023926 78.06395215 -10 75 C-12.15167069 72.52557871 -13.71787754 71.43761633 -17 71 Z M-50 89 C-50 91.97 -50 94.94 -50 98 C-48.10786631 95.61426621 -46.97608217 93.92824652 -46 91 C-46.33 90.34 -46.66 89.68 -47 89 C-47.99 89 -48.98 89 -50 89 Z M-39 90 C-38.67 91.32 -38.34 92.64 -38 94 C-38 92.68 -38 91.36 -38 90 C-38.33 90 -38.66 90 -39 90 Z M-42 91 C-42 96.28 -42 101.56 -42 107 C-38.73493237 102.82782396 -38.73493237 102.82782396 -38 98 C-38.80879904 95.52723861 -39.84906923 93.34789878 -41 91 C-41.33 91 -41.66 91 -42 91 Z M-45 92 C-47.67521365 96.31830242 -47.67521365 96.31830242 -47.3125 101.25 C-46.15606284 104.06632293 -46.15606284 104.06632293 -44 106 C-44 101.38 -44 96.76 -44 92 C-44.33 92 -44.66 92 -45 92 Z M-37 95 C-36 97 -36 97 -36 97 Z M-50 102 C-49 104 -49 104 -49 104 Z M-37 103 C-37.99 104.485 -37.99 104.485 -39 106 C-38.01 105.67 -37.02 105.34 -36 105 C-36.33 104.34 -36.66 103.68 -37 103 Z M-48 105 C-48 105.66 -48 106.32 -48 107 C-49.98 107.99 -49.98 107.99 -52 109 C-49.69 109 -47.38 109 -45 109 C-45.66 107.68 -46.32 106.36 -47 105 C-47.33 105 -47.66 105 -48 105 Z M-40 107 C-40 107.66 -40 108.32 -40 109 C-38.02 109 -36.04 109 -34 109 C-34.33 108.34 -34.66 107.68 -35 107 C-36.65 107 -38.3 107 -40 107 Z M-67 108 C-67 108.33 -67 108.66 -67 109 C-63.04 109 -59.08 109 -55 109 C-55 108.67 -55 108.34 -55 108 C-58.96 108 -62.92 108 -67 108 Z " transform="translate(127 25)" class="color11275D svgShape"></path><path fill="#edff66" d="M0 0 C3.0625 1.75 3.0625 1.75 5 5 C5.39886022 9.03583566 5.28998847 12.95949396 5 17 C4.01 17 3.02 17 2 17 C2 13.7 2 10.4 2 7 C0.35 7 -1.3 7 -3 7 C-3.33 8.65 -3.66 10.3 -4 12 C-6.31 11.67 -8.62 11.34 -11 11 C-10.505 13.475 -10.505 13.475 -10 16 C-9.34 15.34 -8.68 14.68 -8 14 C-5.375 13.875 -5.375 13.875 -3 14 C-3 15.32 -3 16.64 -3 18 C-5.47775095 19.23887548 -7.23653707 19.16741669 -10 19.1875 C-11.3303125 19.20876953 -11.3303125 19.20876953 -12.6875 19.23046875 C-15 19 -15 19 -17 17 C-17.25 13.5 -17.25 13.5 -17 10 C-16.34 9.34 -15.68 8.68 -15 8 C-16.98 7.67 -18.96 7.34 -21 7 C-20.85831863 8.43791516 -20.71148957 9.8753237 -20.5625 11.3125 C-20.48128906 12.11300781 -20.40007813 12.91351563 -20.31640625 13.73828125 C-20.04734307 16.16087179 -20.04734307 16.16087179 -19 19 C-21.64 19 -24.28 19 -27 19 C-27 17.35 -27 15.7 -27 14 C-28.32 14 -29.64 14 -31 14 C-31 14.66 -31 15.32 -31 16 C-30.34 16.33 -29.68 16.66 -29 17 C-29 17.66 -29 18.32 -29 19 C-31.64 19 -34.28 19 -37 19 C-38.32 16.36 -39.64 13.72 -41 11 C-40.01 10.67 -39.02 10.34 -38 10 C-38 9.34 -38 8.68 -38 8 C-40.475 7.505 -40.475 7.505 -43 7 C-43 9.31 -43 11.62 -43 14 C-45.31 13.67 -47.62 13.34 -50 13 C-49.67 11.02 -49.34 9.04 -49 7 C-49.99 7 -50.98 7 -52 7 C-52 9.31 -52 11.62 -52 14 C-51.37351562 14.13277344 -50.74703125 14.26554687 -50.1015625 14.40234375 C-48.87566406 14.66724609 -48.87566406 14.66724609 -47.625 14.9375 C-46.81289063 15.11152344 -46.00078125 15.28554687 -45.1640625 15.46484375 C-43 16 -43 16 -41 17 C-41 17.99 -41 18.98 -41 20 C-39.71416016 19.94779297 -39.71416016 19.94779297 -38.40234375 19.89453125 C-31.78300666 19.73781639 -26.82988446 19.746111 -21 23 C-21 27.95 -21 32.9 -21 38 C-22.32 37.34 -23.64 36.68 -25 36 C-29.12598529 33.99276392 -32.43056647 33.82080653 -37 34 C-36.67 34.99 -36.34 35.98 -36 37 C-33.37942049 38.2568548 -33.37942049 38.2568548 -30.25 39.3125 C-24.80841575 41.49301593 -21.87404941 42.84653209 -19 48 C-17.53245896 52.75624746 -17.52314387 56.71695133 -19.5 61.3125 C-22.53401529 66.5568632 -26.79900274 68.15346259 -32.25 70.25 C-40.02157431 71.80431486 -47.47927666 71.50690778 -55 69 C-56.46445037 66.07109926 -56.43083621 63.25329685 -56.6875 60 C-56.84798828 58.1128125 -56.84798828 58.1128125 -57.01171875 56.1875 C-57 53 -57 53 -55 51 C-53.7625 51.9590625 -53.7625 51.9590625 -52.5 52.9375 C-48.68331286 55.47591425 -45.56937557 55.9250922 -41 56 C-38.97022023 54.72780266 -38.97022023 54.72780266 -38 53 C-38.78375 52.773125 -39.5675 52.54625 -40.375 52.3125 C-47.86491345 49.60063479 -54.57290658 46.96664052 -59.12890625 40.11328125 C-60.40887322 37.0080699 -60.09204018 35.00019645 -58.97265625 31.88671875 C-56.66241173 27.40540107 -53.36156464 23.589679 -49 21 C-47.35 20.67 -45.7 20.34 -44 20 C-48.62 18.35 -53.24 16.7 -58 15 C-58 12.36 -58 9.72 -58 7 C-58.66 7 -59.32 7 -60 7 C-60 6.34 -60 5.68 -60 5 C-55.6080934 4.15694816 -51.45381007 3.87137573 -46.984375 3.8671875 C-46.32850403 3.86623077 -45.67263306 3.86527405 -44.99688721 3.86428833 C-43.61527408 3.86361141 -42.23365769 3.86543146 -40.85205078 3.86962891 C-38.76978143 3.87494946 -36.68773118 3.86968518 -34.60546875 3.86328125 C-27.34956679 3.86003098 -20.20085395 4.05523763 -13 5 C-12.71125 4.360625 -12.4225 3.72125 -12.125 3.0625 C-9.70380455 -1.37635833 -4.46978227 -0.63193473 0 0 Z M-5 3 C-1 4 -1 4 -1 4 Z M-31 7 C-30.67 8.32 -30.34 9.64 -30 11 C-29.01 10.67 -28.02 10.34 -27 10 C-27.33 9.01 -27.66 8.02 -28 7 C-28.99 7 -29.98 7 -31 7 Z " transform="translate(65 63)" class="color173C86 svgShape"></path><path fill="#edff66" d="M0 0 C1.12402222 0.0141394 1.12402222 0.0141394 2.27075195 0.02856445 C10.03611306 0.23691353 18.22940826 0.89182441 24.5625 5.8125 C28.98484969 10.58398256 29.38584466 14.30738503 29.25 20.68359375 C28.66223385 25.74572973 26.16132851 28.27669236 22.5 31.5625 C17.27113176 34.22280139 11.73278645 35.5185143 5.9375 36.375 C5.2775 36.045 4.6175 35.715 3.9375 35.375 C3.96070312 35.96667969 3.98390625 36.55835938 4.0078125 37.16796875 C4.03488281 38.35326172 4.03488281 38.35326172 4.0625 39.5625 C4.08570312 40.33980469 4.10890625 41.11710937 4.1328125 41.91796875 C3.9375 44.375 3.9375 44.375 1.9375 49.375 C-4.9925 48.88 -4.9925 48.88 -12.0625 48.375 C-13.78817235 43.19798296 -14.34738407 40.59787463 -14.0625 35.375 C-14.0625 34.529375 -14.0625 33.68375 -14.0625 32.8125 C-12.61835037 29.29238528 -10.05336842 27.8260692 -6.97265625 25.70703125 C-4.95027204 24.37980158 -4.95027204 24.37980158 -3.0625 22.375 C-2.89572718 18.79156024 -2.89572718 18.79156024 -3.0625 15.375 C-3.784375 15.106875 -4.50625 14.83875 -5.25 14.5625 C-10.875 12.1875 -10.875 12.1875 -13.0625 10.375 C-13.6875 6.875 -13.6875 6.875 -13.0625 3.375 C-9.03225568 0.01775233 -5.03630689 -0.09727376 0 0 Z M4.9375 13.375 C3.52172523 14.55924326 3.52172523 14.55924326 3.875 17.9375 C3.895625 19.071875 3.91625 20.20625 3.9375 21.375 C6.79680528 22.66917988 6.79680528 22.66917988 9.0625 21.625 C11.25726074 20.43895215 11.25726074 20.43895215 11.9375 17.375 C9.78582931 14.90057871 8.21962246 13.81261633 4.9375 13.375 Z " transform="translate(105.063 82.625)" class="color183C83 svgShape"></path><path fill="#edff66" d="M0 0 C10.85509418 0.07384418 10.85509418 0.07384418 14.046875 3.265625 C14.22670712 5.05830879 14.34685507 6.85705161 14.44140625 8.65625 C14.51037109 9.75839844 14.57933594 10.86054687 14.65039062 11.99609375 C14.78874931 14.32620923 14.91650697 16.65698048 15.03320312 18.98828125 C15.45267944 26.96026009 15.45267944 26.96026009 20.046875 33.265625 C22.52541817 38.45876307 21.95129803 42.76575519 21.046875 48.265625 C20.056875 48.595625 19.066875 48.925625 18.046875 49.265625 C17.386875 48.605625 16.726875 47.945625 16.046875 47.265625 C16.706875 47.265625 17.366875 47.265625 18.046875 47.265625 C18.17156599 41.68732484 18.17156599 41.68732484 17.046875 36.265625 C15.40002039 39.55933421 15.59293334 43.19564532 15.328125 46.83203125 C15.046875 49.265625 15.046875 49.265625 14.046875 50.265625 C11.18419933 50.33887668 8.346156 50.35800705 5.484375 50.328125 C4.67806641 50.32361328 3.87175781 50.31910156 3.04101562 50.31445312 C1.04293744 50.30263018 -0.95510283 50.28469414 -2.953125 50.265625 C-3.83512065 46.32999737 -4.23130683 42.47419625 -4.515625 38.453125 C-4.64130859 36.71095703 -4.64130859 36.71095703 -4.76953125 34.93359375 C-4.83011719 34.05316406 -4.89070312 33.17273438 -4.953125 32.265625 C-5.406875 32.905 -5.860625 33.544375 -6.328125 34.203125 C-7.953125 36.265625 -7.953125 36.265625 -9.953125 37.265625 C-9.81204753 38.72442609 -9.66510085 40.18266051 -9.515625 41.640625 C-9.39380859 42.85878906 -9.39380859 42.85878906 -9.26953125 44.1015625 C-9.06222386 46.30835305 -9.06222386 46.30835305 -7.953125 48.265625 C-9.933125 48.760625 -9.933125 48.760625 -11.953125 49.265625 C-13.50199945 44.42539233 -13.55072506 39.92562517 -11.828125 35.140625 C-9.953125 32.265625 -9.953125 32.265625 -6.8515625 30.37890625 C-4.51876282 28.48664437 -4.00278802 27.56136748 -3.49755859 24.55273438 C-3.43431553 21.21062125 -3.5297136 17.9162944 -3.703125 14.578125 C-3.78957654 12.30368665 -3.86811514 10.0289292 -3.9375 7.75390625 C-3.98616211 6.74884033 -4.03482422 5.74377441 -4.08496094 4.70825195 C-3.9175511 1.60651978 -3.16324212 0.43020093 0 0 Z " transform="translate(140.953 82.734)" class="color173C85 svgShape"></path><path fill="#edff66" d="M0 0 C1.25361328 0.00322266 2.50722656 0.00644531 3.79882812 0.00976562 C5.76432617 0.02233398 5.76432617 0.02233398 7.76953125 0.03515625 C9.10481606 0.04017308 10.44010266 0.04473566 11.77539062 0.04882812 C15.04431598 0.0606293 18.31315116 0.07709328 21.58203125 0.09765625 C22.76953125 6.81640625 22.76953125 6.81640625 21.08203125 9.34765625 C18.08394703 11.4463152 14.94064981 12.6582483 11.58203125 14.09765625 C9.03557621 15.80726031 9.03557621 15.80726031 7.58203125 18.09765625 C7.33801847 20.71157014 7.33801847 20.71157014 8.58203125 23.09765625 C11.07963107 24.79648073 11.07963107 24.79648073 13.58203125 26.09765625 C13.58203125 26.75765625 13.58203125 27.41765625 13.58203125 28.09765625 C15.23203125 28.75765625 16.88203125 29.41765625 18.58203125 30.09765625 C18.46816666 32.8693602 18.34142347 35.63943671 18.20703125 38.41015625 C18.160625 39.58868164 18.160625 39.58868164 18.11328125 40.79101562 C18.07460937 41.54833984 18.0359375 42.30566406 17.99609375 43.0859375 C17.96467285 43.78243408 17.93325195 44.47893066 17.90087891 45.1965332 C17.58203125 47.09765625 17.58203125 47.09765625 15.58203125 50.09765625 C12.79350235 50.31873412 10.23549944 50.3787316 7.45703125 50.28515625 C6.32587891 50.26485352 6.32587891 50.26485352 5.171875 50.24414062 C3.30828998 50.2087561 1.44507147 50.15494792 -0.41796875 50.09765625 C-0.74796875 49.43765625 -1.07796875 48.77765625 -1.41796875 48.09765625 C-0.75796875 48.09765625 -0.09796875 48.09765625 0.58203125 48.09765625 C0.58203125 37.20765625 0.58203125 26.31765625 0.58203125 15.09765625 C-2.71796875 15.09765625 -6.01796875 15.09765625 -9.41796875 15.09765625 C-9.41796875 10.47765625 -9.41796875 5.85765625 -9.41796875 1.09765625 C-6.06061738 -0.02146087 -3.53591489 -0.01599961 0 0 Z " transform="translate(57.418 82.902)" class="color193E89 svgShape"></path><path fill="#edff66" d="M0 0 C3.0625 1.75 3.0625 1.75 5 5 C5.39886022 9.03583566 5.28998847 12.95949396 5 17 C4.01 17 3.02 17 2 17 C2 13.7 2 10.4 2 7 C0.35 7 -1.3 7 -3 7 C-3.33 8.65 -3.66 10.3 -4 12 C-6.31 11.67 -8.62 11.34 -11 11 C-10.505 13.475 -10.505 13.475 -10 16 C-9.34 15.34 -8.68 14.68 -8 14 C-5.375 13.875 -5.375 13.875 -3 14 C-3 15.32 -3 16.64 -3 18 C-5.47775095 19.23887548 -7.23653707 19.16741669 -10 19.1875 C-11.3303125 19.20876953 -11.3303125 19.20876953 -12.6875 19.23046875 C-15 19 -15 19 -17 17 C-17.25 13.5 -17.25 13.5 -17 10 C-16.34 9.34 -15.68 8.68 -15 8 C-16.98 7.67 -18.96 7.34 -21 7 C-20.85831863 8.43791516 -20.71148957 9.8753237 -20.5625 11.3125 C-20.48128906 12.11300781 -20.40007813 12.91351563 -20.31640625 13.73828125 C-20.04734307 16.16087179 -20.04734307 16.16087179 -19 19 C-21.64 19 -24.28 19 -27 19 C-27 17.35 -27 15.7 -27 14 C-28.32 14 -29.64 14 -31 14 C-31 14.66 -31 15.32 -31 16 C-30.34 16.33 -29.68 16.66 -29 17 C-29 17.66 -29 18.32 -29 19 C-31.64 19 -34.28 19 -37 19 C-38.32 16.36 -39.64 13.72 -41 11 C-40.01 10.67 -39.02 10.34 -38 10 C-38 9.34 -38 8.68 -38 8 C-40.475 7.505 -40.475 7.505 -43 7 C-43 9.31 -43 11.62 -43 14 C-45.31 13.67 -47.62 13.34 -50 13 C-49.67 11.02 -49.34 9.04 -49 7 C-49.99 7 -50.98 7 -52 7 C-52 9.31 -52 11.62 -52 14 C-51.37351562 14.13277344 -50.74703125 14.26554687 -50.1015625 14.40234375 C-48.87566406 14.66724609 -48.87566406 14.66724609 -47.625 14.9375 C-46.81289063 15.11152344 -46.00078125 15.28554687 -45.1640625 15.46484375 C-43 16 -43 16 -41 17 C-41 17.99 -41 18.98 -41 20 C-40.09636719 19.98839844 -39.19273438 19.97679688 -38.26171875 19.96484375 C-37.08222656 19.95582031 -35.90273438 19.94679688 -34.6875 19.9375 C-33.51574219 19.92589844 -32.34398437 19.91429688 -31.13671875 19.90234375 C-28 20 -28 20 -25 21 C-25 21.66 -25 22.32 -25 23 C-25.50015625 22.83628906 -26.0003125 22.67257813 -26.515625 22.50390625 C-29.9263468 21.8121089 -33.28735757 21.89495335 -36.75 21.9375 C-37.44738281 21.94201172 -38.14476563 21.94652344 -38.86328125 21.95117188 C-40.57555803 21.9628998 -42.28779033 21.98083347 -44 22 C-44 21.34 -44 20.68 -44 20 C-48.62 18.35 -53.24 16.7 -58 15 C-58 12.36 -58 9.72 -58 7 C-58.66 7 -59.32 7 -60 7 C-60 6.34 -60 5.68 -60 5 C-55.6080934 4.15694816 -51.45381007 3.87137573 -46.984375 3.8671875 C-46.32850403 3.86623077 -45.67263306 3.86527405 -44.99688721 3.86428833 C-43.61527408 3.86361141 -42.23365769 3.86543146 -40.85205078 3.86962891 C-38.76978143 3.87494946 -36.68773118 3.86968518 -34.60546875 3.86328125 C-27.34956679 3.86003098 -20.20085395 4.05523763 -13 5 C-12.71125 4.360625 -12.4225 3.72125 -12.125 3.0625 C-9.70380455 -1.37635833 -4.46978227 -0.63193473 0 0 Z M-5 3 C-1 4 -1 4 -1 4 Z M-31 7 C-30.67 8.32 -30.34 9.64 -30 11 C-29.01 10.67 -28.02 10.34 -27 10 C-27.33 9.01 -27.66 8.02 -28 7 C-28.99 7 -29.98 7 -31 7 Z " transform="translate(65 63)" class="color112856 svgShape"></path><path fill="#edff66" d="M0 0 C0 3.33333333 0 6.66666667 0 10 C0.95712891 10.41958984 0.95712891 10.41958984 1.93359375 10.84765625 C8.53397458 14.05002511 8.53397458 14.05002511 10.625 18.3125 C9.75537581 23.44328274 7.10757287 25.26265164 3.19921875 28.49609375 C1 30 1 30 -1 30 C-2.06274635 36.69530202 -1.76627958 41.45437566 0 48 C4.62 48 9.24 48 14 48 C14.66 46.68 15.32 45.36 16 44 C16.87890625 50.15234375 16.87890625 50.15234375 17 52 C15.08118457 53.91881543 11.61967958 53.41702876 9 53.5625 C8.26394531 53.6042334 7.52789062 53.6459668 6.76953125 53.68896484 C-0.15194812 54.03475653 -7.07076631 54.10810692 -14 54.125 C-15.04929687 54.12959229 -16.09859375 54.13418457 -17.1796875 54.13891602 C-23.20181319 54.12694455 -29.02835659 53.7837782 -35 53 C-35 52.01 -35 51.02 -35 50 C-34.01257812 50.03480469 -33.02515625 50.06960937 -32.0078125 50.10546875 C-30.08582031 50.14607422 -30.08582031 50.14607422 -28.125 50.1875 C-26.84882812 50.22230469 -25.57265625 50.25710937 -24.2578125 50.29296875 C-23.18273437 50.19628906 -22.10765625 50.09960938 -21 50 C-19.0243438 47.03651571 -18.73623141 46.31979627 -18.5859375 42.98828125 C-18.54726562 42.23095703 -18.50859375 41.47363281 -18.46875 40.69335938 C-18.42234375 39.51483398 -18.42234375 39.51483398 -18.375 38.3125 C-18.33632812 37.51521484 -18.29765625 36.71792969 -18.2578125 35.89648438 C-18.16367506 33.93136525 -18.08075368 31.9657146 -18 30 C-19.32 29.34 -20.64 28.68 -22 28 C-22 27.34 -22 26.68 -22 26 C-22.78375 25.71125 -23.5675 25.4225 -24.375 25.125 C-27 24 -27 24 -29 22 C-29.06939306 18.87731244 -28.80829393 16.8561085 -26.61328125 14.53125 C-20.0554896 9.46185601 -12.94273814 9.8379033 -5 10 C-3.8509288 8.0745356 -3.8509288 8.0745356 -4 6 C-2.35294118 1.17647059 -2.35294118 1.17647059 0 0 Z M-14 12 C-15.47592027 14.71041175 -15.47592027 14.71041175 -16.6875 17.9375 C-17.34298828 19.55978516 -17.34298828 19.55978516 -18.01171875 21.21484375 C-19.11146995 23.82159266 -19.11146995 23.82159266 -19 26 C-15.98138236 27.50930882 -12.87008697 27.18438844 -9.5625 27.1875 C-8.5405957 27.20586914 -8.5405957 27.20586914 -7.49804688 27.22460938 C-3.77170191 27.23555848 -2.18008429 27.12005619 1 25 C-0.65 20.71 -2.3 16.42 -4 12 C-9.05009595 11.06213918 -9.05009595 11.06213918 -14 12 Z M-2 12 C-1.52140759 13.60433809 -1.04210442 15.20846416 -0.5625 16.8125 C-0.29566406 17.70582031 -0.02882812 18.59914063 0.24609375 19.51953125 C0.80387873 21.35473055 1.39344575 23.18033726 2 25 C4.52363988 24.37466625 4.52363988 24.37466625 7 23 C8.16977494 20.65127469 8.16977494 20.65127469 8 18 C7.11001159 15.67256616 7.11001159 15.67256616 5 14 C1.40932038 12.71157463 1.40932038 12.71157463 -2 12 Z M-26 16 C-27.48362193 18.41100117 -27.48362193 18.41100117 -27 21 C-25.29118236 23.37580018 -25.29118236 23.37580018 -23 25 C-22.34 25 -21.68 25 -21 25 C-19.35 20.71 -17.7 16.42 -16 12 C-19.70373084 12 -22.97847449 13.96590113 -26 16 Z M-16 31 C-16 33.97 -16 36.94 -16 40 C-14.10786631 37.61426621 -12.97608217 35.92824652 -12 33 C-12.33 32.34 -12.66 31.68 -13 31 C-13.99 31 -14.98 31 -16 31 Z M-5 32 C-4.67 33.32 -4.34 34.64 -4 36 C-4 34.68 -4 33.36 -4 32 C-4.33 32 -4.66 32 -5 32 Z M-8 33 C-8 38.28 -8 43.56 -8 49 C-4.73493237 44.82782396 -4.73493237 44.82782396 -4 40 C-4.80879904 37.52723861 -5.84906923 35.34789878 -7 33 C-7.33 33 -7.66 33 -8 33 Z M-11 34 C-13.67521365 38.31830242 -13.67521365 38.31830242 -13.3125 43.25 C-12.15606284 46.06632293 -12.15606284 46.06632293 -10 48 C-10 43.38 -10 38.76 -10 34 C-10.33 34 -10.66 34 -11 34 Z M-16 44 C-15 46 -15 46 -15 46 Z M-3 45 C-3.99 46.485 -3.99 46.485 -5 48 C-4.01 47.67 -3.02 47.34 -2 47 C-2.33 46.34 -2.66 45.68 -3 45 Z M-14 47 C-14 47.66 -14 48.32 -14 49 C-15.98 49.99 -15.98 49.99 -18 51 C-15.69 51 -13.38 51 -11 51 C-11.66 49.68 -12.32 48.36 -13 47 C-13.33 47 -13.66 47 -14 47 Z M-6 49 C-6 49.66 -6 50.32 -6 51 C-4.02 51 -2.04 51 0 51 C-0.33 50.34 -0.66 49.68 -1 49 C-2.65 49 -4.3 49 -6 49 Z " transform="translate(93 83)" class="color060913 svgShape"></path><path fill="#edff66" d="M0 0 C0 0.66 0 1.32 0 2 C0.56605957 2.11625732 1.13211914 2.23251465 1.71533203 2.35229492 C4.23941445 3.06787417 6.25886153 4.09518536 8.5546875 5.36328125 C9.41707031 5.83830078 10.27945313 6.31332031 11.16796875 6.80273438 C12.06128906 7.30095703 12.95460937 7.79917969 13.875 8.3125 C14.76058594 8.79912109 15.64617187 9.28574219 16.55859375 9.78710938 C21.18118337 12.34641197 25.66018933 14.98504902 30 18 C29.34 19.98 28.68 21.96 28 24 C31.10540926 25.21081851 31.10540926 25.21081851 35 25 C35.33 24.34 35.66 23.68 36 23 C40.12797305 23.60705486 43.37438822 24.93999331 47 27 C47.495 27.99 47.495 27.99 48 29 C49.64807042 29.7113973 51.31961953 30.36869684 53 31 C55.09383072 31.97782958 57.17697369 32.97880477 59.25 34 C60.30703125 34.515625 61.3640625 35.03125 62.453125 35.5625 C65 37 65 37 66 39 C67.64551962 39.71727778 69.31422289 40.38325228 71 41 C71.66 41.33 72.32 41.66 73 42 C72.67 43.32 72.34 44.64 72 46 C67.78335321 44.00667606 63.83692605 41.96655867 60 39.3125 C53.30065529 34.71630055 46.10541686 30.9232363 39 27 C37.68 28.32 36.36 29.64 35 31 C30.76570244 29.68938409 26.92592596 28.05643741 23 26 C23.33 23.69 23.66 21.38 24 19 C17.41678691 14.85182154 10.79293609 10.79628085 4 7 C2.96875 6.4225 1.9375 5.845 0.875 5.25 C-2.04025829 3.9824964 -3.86582395 3.72345505 -7 4 C-7.2475 4.7425 -7.495 5.485 -7.75 6.25 C-9 9 -9 9 -10.78125 10.7265625 C-13.5850445 13.59946461 -15.60979864 16.74390013 -17.75 20.125 C-18.16121094 20.75792969 -18.57242188 21.39085938 -18.99609375 22.04296875 C-21.24826418 25.26412814 -21.24826418 25.26412814 -22 29 C-22.66 29 -23.32 29 -24 29 C-24.268125 29.721875 -24.53625 30.44375 -24.8125 31.1875 C-25.98982498 33.97590126 -27.39145884 36.44095724 -29 39 C-30.32 38.67 -31.64 38.34 -33 38 C-31.86852525 34.60557576 -30.24162522 32.76906645 -28 30 C-26.55663597 27.70130914 -25.21323232 25.42646464 -24 23 C-22.5625 20.375 -22.5625 20.375 -21 18 C-20.34 18 -19.68 18 -19 18 C-18.773125 17.360625 -18.54625 16.72125 -18.3125 16.0625 C-16.51434174 11.86679739 -14.26095979 7.96099444 -12 4 C-11.34 4 -10.68 4 -10 4 C-9.67 3.01 -9.34 2.02 -9 1 C-3.79245283 -1.26415094 -3.79245283 -1.26415094 0 0 Z M32 26 C32.66 26.66 33.32 27.32 34 28 C34 27.34 34 26.68 34 26 C33.34 26 32.68 26 32 26 Z " transform="translate(127 25)" class="color040405 svgShape"></path><path fill="#edff66" d="M0 0 C3.86428195 0.77285639 7.30256981 1.71019877 11 3 C11 3.66 11 4.32 11 5 C13.475 5.99 13.475 5.99 16 7 C15.85980308 9.81288705 15.71312045 12.62516885 15.5625 15.4375 C15.50352539 16.64116211 15.50352539 16.64116211 15.44335938 17.86914062 C15.11328125 23.88671875 15.11328125 23.88671875 14 25 C9.33154772 25.14426614 4.67134047 25.04208415 0 25 C0 16.75 0 8.5 0 0 Z " transform="translate(60 106)" class="color183E8A svgShape"></path><path fill="#edff66" d="M0 0 C1.35544922 0.23396484 1.35544922 0.23396484 2.73828125 0.47265625 C3.91777344 0.66730469 5.09726562 0.86195312 6.3125 1.0625 C7.48425781 1.25972656 8.65601563 1.45695312 9.86328125 1.66015625 C13.02511876 2.22305698 13.02511876 2.22305698 16 1 C16.33 2.65 16.66 4.3 17 6 C16.34 6 15.68 6 15 6 C15.33 7.65 15.66 9.3 16 11 C17.32 10.67 18.64 10.34 20 10 C20 10.99 20 11.98 20 13 C13.73 13 7.46 13 1 13 C-0.32229189 10.35541621 -0.09677194 8.32238699 -0.0625 5.375 C-0.05347656 4.37210937 -0.04445313 3.36921875 -0.03515625 2.3359375 C-0.02355469 1.56507812 -0.01195312 0.79421875 0 0 Z " transform="translate(11 119)" class="color193D86 svgShape"></path><path fill="#edff66" d="M0 0 C-1.62551467 1.78806614 -2.81694042 2.92233836 -5.0625 3.875 C-7.71177751 5.41329016 -8.10035344 7.15111923 -9 10 C-8.34 10.66 -7.68 11.32 -7 12 C-7.99 12.66 -8.98 13.32 -10 14 C-10.66372605 17.73345904 -10.39817209 19.4169623 -8.25 22.5625 C-4.70229253 25.77086154 -0.0812571 27.11037817 4.35546875 28.69140625 C7.26664309 30.13194304 7.96133331 30.98595495 9 34 C7 37 7 37 4.5 37.875 C-0.46990852 38.05249673 -4.29481489 36.58958957 -9 35 C-8.67 39.29 -8.34 43.58 -8 48 C-8.66 48 -9.32 48 -10 48 C-11.46445037 45.07109926 -11.43083621 42.25329685 -11.6875 39 C-11.84798828 37.1128125 -11.84798828 37.1128125 -12.01171875 35.1875 C-12 32 -12 32 -10 30 C-9.175 30.639375 -8.35 31.27875 -7.5 31.9375 C-3.68331286 34.47591425 -0.56937557 34.9250922 4 35 C6.02977977 33.72780266 6.02977977 33.72780266 7 32 C6.21625 31.773125 5.4325 31.54625 4.625 31.3125 C-2.86491345 28.60063479 -9.57290658 25.96664052 -14.12890625 19.11328125 C-15.40860564 16.00871906 -15.09013852 14.00106048 -13.9765625 10.88671875 C-12.36750344 7.77801664 -10.42191162 5.54005365 -8 3 C-7.505 2.38125 -7.01 1.7625 -6.5 1.125 C-4.3471404 -0.4896447 -2.6112419 -0.21172232 0 0 Z " transform="translate(20 84)" class="color102A62 svgShape"></path><path fill="#edff66" d="M0 0 C1.65 0.99 3.3 1.98 5 3 C4.57830598 7.91976355 2.48667052 9.6718145 -1 13 C-2.28790738 14.81776717 -3.50634725 16.66062193 -4.69140625 18.546875 C-6.38466591 20.4271514 -7.4938933 20.78835183 -10 21 C-10.99 20.34 -11.98 19.68 -13 19 C-12.45276317 15.62537285 -11.9451 13.91765 -10 11 C-9.67 10.34 -9.34 9.68 -9 9 C-7.35570171 7.31126121 -5.68615782 5.64694485 -4 4 C-3.236875 3.236875 -2.47375 2.47375 -1.6875 1.6875 C-1.130625 1.130625 -0.57375 0.57375 0 0 Z M-1 4 C-1.99 5.98 -2.98 7.96 -4 10 C-0.88667752 9.33131686 -0.88667752 9.33131686 0.1875 6.9375 C0.455625 6.298125 0.72375 5.65875 1 5 C0.34 4.67 -0.32 4.34 -1 4 Z M-5 10 C-5.33 10.99 -5.66 11.98 -6 13 C-6.99 13.495 -6.99 13.495 -8 14 C-7.01 14 -6.02 14 -5 14 C-4.67 12.68 -4.34 11.36 -4 10 C-4.33 10 -4.66 10 -5 10 Z M-9 16 C-9.33 16.66 -9.66 17.32 -10 18 C-9.34 18 -8.68 18 -8 18 C-8.33 17.34 -8.66 16.68 -9 16 Z " transform="translate(175 58)" class="color040406 svgShape"></path><path fill="#edff66" d="M0 0 C0.433125 0.9590625 0.433125 0.9590625 0.875 1.9375 C1.82823451 4.15206079 1.82823451 4.15206079 4 5 C4 3.68 4 2.36 4 1 C4.99 1.33 5.98 1.66 7 2 C6.79375 2.928125 6.5875 3.85625 6.375 4.8125 C5.63307034 8.15173402 5.63307034 8.15173402 8 11 C5.69 10.34 3.38 9.68 1 9 C1 17.25 1 25.5 1 34 C5.62 34 10.24 34 15 34 C14.67 34.66 14.34 35.32 14 36 C8.72 36 3.44 36 -2 36 C-2.33 35.34 -2.66 34.68 -3 34 C-2.34 34 -1.68 34 -1 34 C-1.00523682 33.00556885 -1.01047363 32.0111377 -1.01586914 30.98657227 C-1.03392041 27.30966079 -1.04543246 23.63275325 -1.05493164 19.95581055 C-1.05997157 18.36205386 -1.0668035 16.76830181 -1.07543945 15.17456055 C-1.08751999 12.88849747 -1.09323155 10.60249533 -1.09765625 8.31640625 C-1.10281754 7.59973282 -1.10797882 6.88305939 -1.11329651 6.14466858 C-1.11349263 4.42936328 -1.06192007 2.71418734 -1 1 C-0.67 0.67 -0.34 0.34 0 0 Z " transform="translate(59 97)" class="color1B3776 svgShape"></path><path fill="#edff66" d="M0 0 C9.24 0 18.48 0 28 0 C29 7 29 7 27.5 9.25 C23.62148033 11.96496377 19.46801003 13.51066332 15 15 C15 14.01 15 13.02 15 12 C15.66 12 16.32 12 17 12 C17 11.34 17 10.68 17 10 C19.31 10 21.62 10 24 10 C24 8.68 24 7.36 24 6 C17.35802764 3.15344042 12.41698169 2.11660366 5.1875 3.5625 C3 4 3 4 0 3 C0 2.01 0 1.02 0 0 Z " transform="translate(51 83)" class="color1B3F81 svgShape"></path><path fill="#edff66" d="M0 0 C2.31 0.66 4.62 1.32 7 2 C7 6.29 7 10.58 7 15 C7.66 15 8.32 15 9 15 C9 15.66 9 16.32 9 17 C6.36 17 3.72 17 1 17 C0.95101562 16.25234375 0.90203125 15.5046875 0.8515625 14.734375 C0.77679688 13.74953125 0.70203125 12.7646875 0.625 11.75 C0.55539063 10.77546875 0.48578125 9.8009375 0.4140625 8.796875 C0.01534751 6.10366811 -0.63507063 4.33036721 -2 2 C-1.34 1.34 -0.68 0.68 0 0 Z " transform="translate(95 65)" class="color12285D svgShape"></path><path fill="#edff66" d="M0 0 C3 0 3 0 4.67578125 1.609375 C6.37149862 4.67067007 6.30089294 6.77261665 6.1875 10.25 C6.16042969 11.32765625 6.13335937 12.4053125 6.10546875 13.515625 C6.07066406 14.33546875 6.03585938 15.1553125 6 16 C5.01 16 4.02 16 3 16 C3 12.7 3 9.4 3 6 C1.35 6 -0.3 6 -2 6 C-2.33 7.65 -2.66 9.3 -3 11 C-4.32 10.34 -5.64 9.68 -7 9 C-7 8.01 -7 7.02 -7 6 C-7.66 6 -8.32 6 -9 6 C-8.67 4.35 -8.34 2.7 -8 1 C-7.34 1 -6.68 1 -6 1 C-5.67 1.66 -5.34 2.32 -5 3 C-1.9254644 2.2236068 -1.9254644 2.2236068 0 0 Z " transform="translate(64 64)" class="color18326D svgShape"></path><path fill="#edff66" d="M0 0 C2.32378307 3.4856746 2.63078302 5.86476981 3 10 C2.67 10.99 2.34 11.98 2 13 C1.65179959 14.66362417 1.31595508 16.32995171 1 18 C0.67 18 0.34 18 0 18 C-0.33 15.69 -0.66 13.38 -1 11 C-1.45375 11.639375 -1.9075 12.27875 -2.375 12.9375 C-4 15 -4 15 -6 16 C-5.85892253 17.45880109 -5.71197585 18.91703551 -5.5625 20.375 C-5.48128906 21.18710938 -5.40007812 21.99921875 -5.31640625 22.8359375 C-5.10909886 25.04272805 -5.10909886 25.04272805 -4 27 C-5.32 27.33 -6.64 27.66 -8 28 C-9.54887445 23.15976733 -9.59760006 18.66000017 -7.875 13.875 C-6.19605643 11.30061986 -5.18180222 10.25877281 -2.8125 8.5 C0.34471862 6.25405868 0.34471862 6.25405868 0.375 2.6875 C0.25125 1.800625 0.1275 0.91375 0 0 Z " transform="translate(137 104)" class="color081024 svgShape"></path><path fill="#edff66" d="M0 0 C-0.99 1.32 -1.98 2.64 -3 4 C-2.67 4.66 -2.34 5.32 -2 6 C-2.33 6.66 -2.66 7.32 -3 8 C-1.68 8.33 -0.36 8.66 1 9 C2.125 12.75 2.125 12.75 1 15 C-1 13 -1 13 -1.3125 11 C-1.6528125 10.01 -1.6528125 10.01 -2 9 C-4.29534258 7.86454438 -4.29534258 7.86454438 -7 7 C-9.8125 5.625 -9.8125 5.625 -12 4 C-12 0 -12 0 -10 -2 C-6.01714574 -3.84918234 -3.598585 -2.04465057 0 0 Z " transform="translate(105 88)" class="color1A3F88 svgShape"></path><path fill="#edff66" d="M0 0 C1.65 0.33 3.3 0.66 5 1 C5.52992692 2.45505358 6.0486789 3.91418127 6.5625 5.375 C6.85253906 6.18710938 7.14257812 6.99921875 7.44140625 7.8359375 C8 10 8 10 7 12 C4.27734375 12.4140625 4.27734375 12.4140625 0.9375 12.625 C-0.16722656 12.69976562 -1.27195312 12.77453125 -2.41015625 12.8515625 C-3.26480469 12.90054688 -4.11945313 12.94953125 -5 13 C-4.50886719 12.41734375 -4.01773438 11.8346875 -3.51171875 11.234375 C-1.4110783 8.12955242 -1.78879337 5.660915 -2 2 C-1.34 1.67 -0.68 1.34 0 1 C0 0.67 0 0.34 0 0 Z " transform="translate(81 81)" class="color081432 svgShape"></path><path fill="#edff66" d="M0 0 C2.5625 1.5 2.5625 1.5 4 3 C1.69 3 -0.62 3 -3 3 C-2.67 4.32 -2.34 5.64 -2 7 C-2.99 7 -3.98 7 -5 7 C-4.85831863 8.43791516 -4.71148957 9.8753237 -4.5625 11.3125 C-4.48128906 12.11300781 -4.40007812 12.91351563 -4.31640625 13.73828125 C-4.04734307 16.16087179 -4.04734307 16.16087179 -3 19 C-4.32 18.34 -5.64 17.68 -7 17 C-7 13 -7 9 -7 5 C-8.32 4.67 -9.64 4.34 -11 4 C-11.33 5.32 -11.66 6.64 -12 8 C-12 7.01 -12 6.02 -12 5 C-13.32 4.67 -14.64 4.34 -16 4 C-14.68 4 -13.36 4 -12 4 C-11.67 3.01 -11.34 2.02 -11 1 C-7.56928684 -0.71535658 -3.75941181 -0.4006478 0 0 Z " transform="translate(96 63)" class="color0C234E svgShape"></path><path fill="#edff66" d="M0 0 C0.66 0 1.32 0 2 0 C1.54363464 1.396478 1.08480512 2.7921508 0.625 4.1875 C0.36976562 4.96480469 0.11453125 5.74210937 -0.1484375 6.54296875 C-1.02206922 9.06367679 -1.99120398 11.53064278 -3 14 C-2.07316406 14.04898438 -1.14632812 14.09796875 -0.19140625 14.1484375 C1.00613281 14.22320312 2.20367187 14.29796875 3.4375 14.375 C5.22994141 14.47941406 5.22994141 14.47941406 7.05859375 14.5859375 C8.51458984 14.79089844 8.51458984 14.79089844 10 15 C10.33 15.66 10.66 16.32 11 17 C8.91814549 17.22262606 6.83439574 17.42757926 4.75 17.625 C3.58984375 17.74101563 2.4296875 17.85703125 1.234375 17.9765625 C-1.93872091 17.99955595 -3.38317244 17.69705154 -6 16 C-6 15.34 -6 14.68 -6 14 C-6.66 14 -7.32 14 -8 14 C-7.67 13.01 -7.34 12.02 -7 11 C-7 11.66 -7 12.32 -7 13 C-6.34 13 -5.68 13 -5 13 C-4.9175 12.34 -4.835 11.68 -4.75 11 C-3.75240209 7.00960837 -1.92833317 3.61450357 0 0 Z " transform="translate(77 95)" class="color090A11 svgShape"></path><path fill="#edff66" d="M0 0 C-3.75 3 -3.75 3 -6 3 C-6.33 5.31 -6.66 7.62 -7 10 C-7.66 9.34 -8.32 8.68 -9 8 C-8.67 6.68 -8.34 5.36 -8 4 C-12.29 4 -16.58 4 -21 4 C-20.95875 5.753125 -20.9175 7.50625 -20.875 9.3125 C-20.75 14.625 -20.75 14.625 -23 18 C-23.08075665 15.70890403 -23.13907731 13.41700733 -23.1875 11.125 C-23.22230469 9.84882812 -23.25710937 8.57265625 -23.29296875 7.2578125 C-23.19628906 6.18273437 -23.09960938 5.10765625 -23 4 C-19.99431793 1.99621195 -18.99484235 1.70954062 -15.5625 1.4375 C-12.59716337 1.19164299 -9.87179454 0.78213115 -7 0 C-2.25806452 -1.12903226 -2.25806452 -1.12903226 0 0 Z " transform="translate(98 110)" class="color101C35 svgShape"></path><path fill="#edff66" d="M0 0 C-0.33 0.99 -0.66 1.98 -1 3 C-4.3 3.33 -7.6 3.66 -11 4 C-10.67 4.99 -10.34 5.98 -10 7 C-10.66 7 -11.32 7 -12 7 C-12 7.66 -12 8.32 -12 9 C-11.278125 9.268125 -10.55625 9.53625 -9.8125 9.8125 C-2.99210823 12.69222097 -2.99210823 12.69222097 -0.625 15.8125 C0.22067535 18.77236371 -0.32604821 21.03461211 -1 24 C-2.32 24.33 -3.64 24.66 -5 25 C-4.34 24.01 -3.68 23.02 -3 22 C-2.92094936 19.66800612 -2.91201231 17.33167378 -3 15 C-3.721875 14.731875 -4.44375 14.46375 -5.1875 14.1875 C-10.8125 11.8125 -10.8125 11.8125 -13 10 C-13.625 6.5 -13.625 6.5 -13 3 C-9.12753869 -0.75144689 -5.07016093 -0.25780479 0 0 Z M-10 5 C-8 6 -8 6 -8 6 Z " transform="translate(105 83)" class="color1E3970 svgShape"></path><path fill="#edff66" d="M0 0 C0.66 0 1.32 0 2 0 C2.66 0.99 3.32 1.98 4 3 C4.66 3 5.32 3 6 3 C6 4.32 6 5.64 6 7 C4.68 7 3.36 7 2 7 C2 7.66 2 8.32 2 9 C2.66 9.33 3.32 9.66 4 10 C4 10.66 4 11.32 4 12 C1.36 12 -1.28 12 -4 12 C-5.32 9.36 -6.64 6.72 -8 4 C-6.35 3.67 -4.7 3.34 -3 3 C-3.66 4.32 -4.32 5.64 -5 7 C-4.34 7.33 -3.68 7.66 -3 8 C-3.33 8.66 -3.66 9.32 -4 10 C-3.01 10 -2.02 10 -1 10 C-1.33 8.02 -1.66 6.04 -2 4 C-1.01 3.67 -0.02 3.34 1 3 C0.67 2.01 0.34 1.02 0 0 Z " transform="translate(32 70)" class="color0D2458 svgShape"></path><path fill="#edff66" d="M0 0 C3.82465205 3.4220571 6.02115839 5.91002361 7 11 C6.86060412 14.03683884 6.49307286 17.00158399 6 20 C5.01 20.33 4.02 20.66 3 21 C2.34 20.34 1.68 19.68 1 19 C1.66 19 2.32 19 3 19 C3.12469099 13.42169984 3.12469099 13.42169984 2 8 C1.34 8.66 0.68 9.32 0 10 C0 6.7 0 3.4 0 0 Z " transform="translate(156 111)" class="color03060B svgShape"></path><path fill="#edff66" d="M0 0 C9.40228594 -0.1170409 18.62895894 0.11504503 28 1 C28 1.66 28 2.32 28 3 C18.55656618 3.71960516 9.42869877 4.32368341 0 3 C0 2.01 0 1.02 0 0 Z " transform="translate(58 133)" class="color131317 svgShape"></path><path fill="#edff66" d="M0 0 C0.66 0.33 1.32 0.66 2 1 C-1.09961568 6.92969955 -4.75550511 8.85620334 -11 11 C-14.19779796 11.98443277 -17.09530113 12.13427101 -20.4375 12.125 C-21.82775391 12.12886719 -21.82775391 12.12886719 -23.24609375 12.1328125 C-25.92865981 12.00344052 -28.38568718 11.59782834 -31 11 C-31 10.67 -31 10.34 -31 10 C-29.19015625 9.94392578 -29.19015625 9.94392578 -27.34375 9.88671875 C-25.72913822 9.82100781 -24.11455622 9.75456229 -22.5 9.6875 C-21.31277344 9.65366211 -21.31277344 9.65366211 -20.1015625 9.61914062 C-13.95022374 9.34182617 -7.97568303 8.54792859 -3.125 4.39453125 C-2.75375 3.87246094 -2.3825 3.35039063 -2 2.8125 C-1.34 1.884375 -0.68 0.95625 0 0 Z " transform="translate(44 122)" class="color0A204D svgShape"></path><path fill="#edff66" d="M0 0 C2 3.75 2 3.75 2 6 C6.62 6 11.24 6 16 6 C16.66 4.68 17.32 3.36 18 2 C18.33 3.98 18.66 5.96 19 8 C15.65060119 10.02558881 13.13037449 10.21738987 9.25 10.125 C8.26515625 10.10695312 7.2803125 10.08890625 6.265625 10.0703125 C5.14414063 10.03550781 5.14414063 10.03550781 4 10 C3.67 9.01 3.34 8.02 3 7 C2.01 7.33 1.02 7.66 0 8 C-1.125 2.25 -1.125 2.25 0 0 Z " transform="translate(91 125)" class="color13213F svgShape"></path><path fill="#edff66" d="M0 0 C0.99 0.33 1.98 0.66 3 1 C3 5.95 3 10.9 3 16 C1.68 15.34 0.36 14.68 -1 14 C-5.14197461 11.98498532 -8.41502791 11.83018622 -13 12 C-13.99 12 -14.98 12 -16 12 C-14 10 -14 10 -11.50390625 9.76953125 C-10.04791016 9.79080078 -10.04791016 9.79080078 -8.5625 9.8125 C-7.11037109 9.82216797 -7.11037109 9.82216797 -5.62890625 9.83203125 C-3 10 -3 10 0 11 C0 7.37 0 3.74 0 0 Z " transform="translate(41 85)" class="color0E2960 svgShape"></path><path fill="#edff66" d="M0 0 C3.3 0.99 6.6 1.98 10 3 C10 3.99 10 4.98 10 6 C10.90363281 5.98839844 11.80726562 5.97679688 12.73828125 5.96484375 C13.91777344 5.95582031 15.09726562 5.94679688 16.3125 5.9375 C17.48425781 5.92589844 18.65601563 5.91429688 19.86328125 5.90234375 C23 6 23 6 26 7 C26 7.66 26 8.32 26 9 C25.49984375 8.83628906 24.9996875 8.67257813 24.484375 8.50390625 C21.0736532 7.8121089 17.71264243 7.89495335 14.25 7.9375 C13.55261719 7.94201172 12.85523438 7.94652344 12.13671875 7.95117188 C10.42444197 7.9628998 8.71220967 7.98083347 7 8 C7 7.34 7 6.68 7 6 C4.03 5.01 1.06 4.02 -2 3 C-1.34 2.01 -0.68 1.02 0 0 Z " transform="translate(14 77)" class="color10224B svgShape"></path><path fill="#edff66" d="M0 0 C8.91 0 17.82 0 27 0 C27 0.66 27 1.32 27 2 C21.21224339 3.58802392 16.98749017 3.97977112 11 3 C9.57895539 3.12391298 8.16116028 3.29179602 6.75 3.5 C3 4 3 4 0 3 C0 2.01 0 1.02 0 0 Z " transform="translate(51 83)" class="color1B366B svgShape"></path><path fill="#edff66" d="M0 0 C0 1.65 0 3.3 0 5 C-0.99 5.495 -0.99 5.495 -2 6 C-2 4.35 -2 2.7 -2 1 C-2.99 1 -3.98 1 -5 1 C-4.67 1.99 -4.34 2.98 -4 4 C-4.66 4 -5.32 4 -6 4 C-6 3.34 -6 2.68 -6 2 C-7.98567708 2.29296875 -9.97135417 2.5859375 -11.95703125 2.87890625 C-14 3 -14 3 -17 2 C-17 1.34 -17 0.68 -17 0 C-11.46386294 -1.42868053 -5.44788588 -1.81596196 0 0 Z " transform="translate(119 68)" class="color0D214C svgShape"></path><path fill="#edff66" d="M0 0 C-1.62551467 1.78806614 -2.81694042 2.92233836 -5.0625 3.875 C-7.71177751 5.41329016 -8.10035344 7.15111923 -9 10 C-8.34 10.66 -7.68 11.32 -7 12 C-7.99 12.66 -8.98 13.32 -10 14 C-11.19232613 16.05003955 -11.19232613 16.05003955 -12 18 C-13.57455739 14.85088521 -13.34799118 12.47991184 -13 9 C-10.6875 5.75 -10.6875 5.75 -8 3 C-7.505 2.38125 -7.01 1.7625 -6.5 1.125 C-4.3471404 -0.4896447 -2.6112419 -0.21172232 0 0 Z " transform="translate(20 84)" class="color122C63 svgShape"></path><path fill="#edff66" d="M0 0 C2.97 0.495 2.97 0.495 6 1 C5.67 1.66 5.34 2.32 5 3 C4.9044069 4.66444461 4.87015355 6.33281963 4.875 8 C4.87242188 8.886875 4.86984375 9.77375 4.8671875 10.6875 C4.84872098 13.02676966 4.84872098 13.02676966 6 15 C4.35 15 2.7 15 1 15 C1.020625 14.01 1.04125 13.02 1.0625 12 C1.07081428 7.93431926 0.56468467 4.02337824 0 0 Z " transform="translate(85 67)" class="color1C397D svgShape"></path><path fill="#edff66" d="M0 0 C3.3 1.65 6.6 3.3 10 5 C10 5.33 10 5.66 10 6 C7.36 5.67 4.72 5.34 2 5 C2.33 9.29 2.66 13.58 3 18 C2.34 18 1.68 18 1 18 C-0.46493069 15.07013861 -0.39150493 12.2555884 -0.625 9 C-0.72039063 7.741875 -0.81578125 6.48375 -0.9140625 5.1875 C-1 2 -1 2 0 0 Z " transform="translate(9 114)" class="color0E204A svgShape"></path><path fill="#edff66" d="M0 0 C2.31 0 4.62 0 7 0 C7 0.66 7 1.32 7 2 C8.65 2 10.3 2 12 2 C12 2.66 12 3.32 12 4 C12.66 4.33 13.32 4.66 14 5 C10.7 5 7.4 5 4 5 C3.67 4.01 3.34 3.02 3 2 C2.34 2.66 1.68 3.32 1 4 C1.33 4.99 1.66 5.98 2 7 C0.68 6.34 -0.64 5.68 -2 5 C-1.34 3.35 -0.68 1.7 0 0 Z " transform="translate(144 70)" class="color081B5C svgShape"></path><path fill="#edff66" d="M0 0 C2.475 0.495 2.475 0.495 5 1 C4.67 4.63 4.34 8.26 4 12 C2.68 12 1.36 12 0 12 C0 8.04 0 4.08 0 0 Z " transform="translate(38 68)" class="color183B7A svgShape"></path><path fill="#edff66" d="M0 0 C0.66 0 1.32 0 2 0 C2 3.96 2 7.92 2 12 C4.64 12 7.28 12 10 12 C10 12.66 10 13.32 10 14 C6.7 14 3.4 14 0 14 C0 9.38 0 4.76 0 0 Z " transform="translate(48 84)" class="color122D5F svgShape"></path><path fill="#edff66" d="M0 0 C0.99 0.33 1.98 0.66 3 1 C3.04898438 1.69867188 3.09796875 2.39734375 3.1484375 3.1171875 C3.22320312 4.02726562 3.29796875 4.93734375 3.375 5.875 C3.44460937 6.77992187 3.51421875 7.68484375 3.5859375 8.6171875 C3.79568132 11.17941903 3.79568132 11.17941903 6 13 C3.36 13 0.72 13 -2 13 C-1.34 12.67 -0.68 12.34 0 12 C0 8.04 0 4.08 0 0 Z " transform="translate(135 69)" class="color1E3A7A svgShape"></path><path fill="#edff66" d="M0 0 C2.64 0 5.28 0 8 0 C8 0.66 8 1.32 8 2 C7.01 2.66 6.02 3.32 5 4 C3.78715124 7.05429073 3.78715124 7.05429073 3 10 C1 9 1 9 -0.1875 5.5625 C-1 2 -1 2 0 0 Z " transform="translate(76 68)" class="color122D67 svgShape"></path><path fill="#edff66" d="M0 0 C0 0.99 0 1.98 0 3 C-5.67253873 8.34839366 -12.40327862 10.07225881 -20 11 C-20.66 10.67 -21.32 10.34 -22 10 C-22 9.34 -22 8.68 -22 8 C-20.91460937 7.84144531 -19.82921875 7.68289062 -18.7109375 7.51953125 C-17.26545881 7.28487562 -15.820155 7.04914097 -14.375 6.8125 C-13.66214844 6.71130859 -12.94929688 6.61011719 -12.21484375 6.50585938 C-6.79496483 5.58597167 -3.95758618 3.81401444 0 0 Z " transform="translate(131 108)" class="color0C2152 svgShape"></path><path fill="#edff66" d="M0 0 C1.65 0.33 3.3 0.66 5 1 C5 4.96 5 8.92 5 13 C4.01 12.67 3.02 12.34 2 12 C2 9.03 2 6.06 2 3 C1.01 3 0.02 3 -1 3 C-0.67 2.01 -0.34 1.02 0 0 Z " transform="translate(95 67)" class="color193D81 svgShape"></path><path fill="#edff66" d="M0 0 C2 3 2 3 2 5 C6.62 5 11.24 5 16 5 C15.67 5.66 15.34 6.32 15 7 C9.72 7 4.44 7 -1 7 C-1.33 6.34 -1.66 5.68 -2 5 C-1.34 5 -0.68 5 0 5 C0 3.35 0 1.7 0 0 Z " transform="translate(58 126)" class="color18294D svgShape"></path><path fill="#edff66" d="M0 0 C3.16115776 1.36983503 3.9927092 1.9890638 6 5 C3 7 3 7 -0.125 6.75 C-1.07375 6.5025 -2.0225 6.255 -3 6 C-3.33 5.34 -3.66 4.68 -4 4 C-2.68 2.68 -1.36 1.36 0 0 Z " transform="translate(83 102)" class="color080608 svgShape"></path><path fill="#edff66" d="M0 0 C0.99 0.33 1.98 0.66 3 1 C3.38133299 2.9914056 3.71325582 4.99279077 4 7 C3 8 3 8 -0.0625 8.0625 C-1.031875 8.041875 -2.00125 8.02125 -3 8 C-1.125 1.125 -1.125 1.125 0 0 Z " transform="translate(83 85)" class="color1F386B svgShape"></path><path fill="#edff66" d="M0 0 C1.21236328 0.04060547 1.21236328 0.04060547 2.44921875 0.08203125 C3.06410156 0.11683594 3.67898437 0.15164062 4.3125 0.1875 C1.6875 4.0625 1.6875 4.0625 -1.6875 5.1875 C-2.0175 4.1975 -2.3475 3.2075 -2.6875 2.1875 C-3.3475 2.1875 -4.0075 2.1875 -4.6875 2.1875 C-5.0175 3.8375 -5.3475 5.4875 -5.6875 7.1875 C-6.6775 6.8575 -7.6675 6.5275 -8.6875 6.1875 C-7.03424224 1.22772672 -5.22775588 -0.22729373 0 0 Z " transform="translate(60.688 62.813)" class="color071D42 svgShape"></path><path fill="#edff66" d="M0 0 C1.98 0 3.96 0 6 0 C6 1.32 6 2.64 6 4 C5.01 4.495 5.01 4.495 4 5 C4 6.98 4 8.96 4 11 C3.01 11 2.02 11 1 11 C-0.125 6.25 -0.125 6.25 1 4 C0.60061233 1.90178785 0.60061233 1.90178785 0 0 Z " transform="translate(27 69)" class="color1A387A svgShape"></path><path fill="#edff66" d="M0 0 C0.66 0.33 1.32 0.66 2 1 C2 4.96 2 8.92 2 13 C1.01 13 0.02 13 -1 13 C-2.0070238 7.96488101 -1.97387813 4.76052962 0 0 Z " transform="translate(125 68)" class="color1B3D84 svgShape"></path><path fill="#edff66" d="M0 0 C0.99 0.66 1.98 1.32 3 2 C2.6803125 2.70640625 2.360625 3.4128125 2.03125 4.140625 C0.64419308 7.98655554 0.56057529 11.61724214 0.34375 15.671875 C0.2303125 16.44015625 0.116875 17.2084375 0 18 C-0.66 18.33 -1.32 18.66 -2 19 C-2.05380578 16.20807795 -2.09357669 13.4171859 -2.125 10.625 C-2.14175781 9.8309375 -2.15851563 9.036875 -2.17578125 8.21875 C-2.19335473 6.14507985 -2.10335168 4.07116759 -2 2 C-1.34 1.34 -0.68 0.68 0 0 Z " transform="translate(139 83)" class="color142657 svgShape"></path><path fill="#edff66" d="M0 0 C2.475 0.99 2.475 0.99 5 2 C5 5.63 5 9.26 5 13 C4.01 13 3.02 13 2 13 C2 9.7 2 6.4 2 3 C1.01 3 0.02 3 -1 3 C-0.67 2.01 -0.34 1.02 0 0 Z " transform="translate(65 67)" class="color1B3C83 svgShape"></path><path fill="#edff66" d="M0 0 C0.33 0 0.66 0 1 0 C1.15855469 0.59167969 1.31710938 1.18335937 1.48046875 1.79296875 C3.46547546 8.51567102 6.08296941 12.05531294 12 16 C11.34 16.33 10.68 16.66 10 17 C5.19415397 14.20590347 1.37524463 11.16116239 -1 6 C-0.8125 2.5625 -0.8125 2.5625 0 0 Z " transform="translate(6 95)" class="color091E44 svgShape"></path><path fill="#edff66" d="M0 0 C6.75 2.875 6.75 2.875 9 4 C9 4.66 9 5.32 9 6 C7.68 6.33 6.36 6.66 5 7 C4.67 9.64 4.34 12.28 4 15 C3.67 15 3.34 15 3 15 C2.95101562 14.25234375 2.90203125 13.5046875 2.8515625 12.734375 C2.77679688 11.74953125 2.70203125 10.7646875 2.625 9.75 C2.55539063 8.77546875 2.48578125 7.8009375 2.4140625 6.796875 C2.01534751 4.10366811 1.36492937 2.33036721 0 0 Z " transform="translate(67 64)" class="color0C1E44 svgShape"></path><path fill="#edff66" d="M0 0 C2.33944736 0.28730055 4.6739143 0.61936779 7 1 C7 2.65 7 4.3 7 6 C4.3333581 7.33332095 2.83319697 6.67102033 0 6 C-0.38218767 4.34385343 -0.71395102 2.67542976 -1 1 C-0.67 0.67 -0.34 0.34 0 0 Z M4 3 C3.34 3.66 2.68 4.32 2 5 C3.32 4.67 4.64 4.34 6 4 C5.34 3.67 4.68 3.34 4 3 Z " transform="translate(153 62)" class="color0C1838 svgShape"></path><path fill="#edff66" d="M0 0 C0.99 0 1.98 0 3 0 C3.84098656 4.01804691 4.05404945 7.01803543 3 11 C2.34 11 1.68 11 1 11 C-1.125 3.375 -1.125 3.375 0 0 Z " transform="translate(114 69)" class="color19387B svgShape"></path><path fill="#edff66" d="M0 0 C0.66 0 1.32 0 2 0 C2.04254356 1.99954746 2.04080783 4.00041636 2 6 C1 7 1 7 -2.16015625 7.09765625 C-4.09181641 7.08025391 -4.09181641 7.08025391 -6.0625 7.0625 C-7.35285156 7.05347656 -8.64320312 7.04445312 -9.97265625 7.03515625 C-10.97167969 7.02355469 -11.97070312 7.01195312 -13 7 C-13 6.67 -13 6.34 -13 6 C-12.21753906 5.95101562 -11.43507812 5.90203125 -10.62890625 5.8515625 C-9.61699219 5.77679688 -8.60507813 5.70203125 -7.5625 5.625 C-6.55316406 5.55539063 -5.54382813 5.48578125 -4.50390625 5.4140625 C-3.26447266 5.20910156 -3.26447266 5.20910156 -2 5 C-1.67 4.34 -1.34 3.68 -1 3 C-0.34 3 0.32 3 1 3 C0.67 2.01 0.34 1.02 0 0 Z " transform="translate(73 124)" class="color1F3D7E svgShape"></path><path fill="#edff66" d="M0 0 C0.33 0 0.66 0 1 0 C1.05449838 1.72880982 1.09301688 3.45812712 1.125 5.1875 C1.14820312 6.15042969 1.17140625 7.11335938 1.1953125 8.10546875 C0.9913544 11.12812778 0.26874632 13.26769985 -1 16 C-2 14 -2 14 -1.5 11.8125 C-0.81938817 8.85856013 -0.81938817 8.85856013 -1.5625 5.3125 C-1.706875 4.219375 -1.85125 3.12625 -2 2 C-1.34 1.34 -0.68 0.68 0 0 Z " transform="translate(108 116)" class="color18346C svgShape"></path><path fill="#edff66" d="M0 0 C1.32 0.33 2.64 0.66 4 1 C0.04 2.98 -3.92 4.96 -8 7 C-8.33 6.01 -8.66 5.02 -9 4 C-8.34 4 -7.68 4 -7 4 C-7 3.34 -7 2.68 -7 2 C-4.69 2 -2.38 2 0 2 C0 1.34 0 0.68 0 0 Z " transform="translate(75 91)" class="color213F73 svgShape"></path><path fill="#edff66" d="M0 0 C2 2 2 2 2.1953125 4.8203125 C2.16050781 6.45613281 2.16050781 6.45613281 2.125 8.125 C2.10695312 9.22070312 2.08890625 10.31640625 2.0703125 11.4453125 C2.04710937 12.28835937 2.02390625 13.13140625 2 14 C0.48046875 12.85546875 0.48046875 12.85546875 -1 11 C-1.07421875 8.30078125 -1.07421875 8.30078125 -0.6875 5.3125 C-0.56761719 4.31863281 -0.44773438 3.32476562 -0.32421875 2.30078125 C-0.21722656 1.54152344 -0.11023438 0.78226562 0 0 Z " transform="translate(138 117)" class="color17356A svgShape"></path><path fill="#edff66" d="M0 0 C1.65 0 3.3 0 5 0 C5 1.65 5 3.3 5 5 C0.545 5.495 0.545 5.495 -4 6 C-3 4 -3 4 0 2 C0 1.34 0 0.68 0 0 Z " transform="translate(108 72)" class="color051652 svgShape"></path><path fill="#edff66" d="M0 0 C0.66 0 1.32 0 2 0 C2.12375 1.093125 2.2475 2.18625 2.375 3.3125 C2.75464801 7.07381802 2.75464801 7.07381802 5 10 C3.68 10.33 2.36 10.66 1 11 C-0.17571451 7.32589215 -0.07366746 3.83070817 0 0 Z " transform="translate(128 121)" class="color030405 svgShape"></path><path fill="#edff66" d="M0 0 C0.99 0.33 1.98 0.66 3 1 C3 5.95 3 10.9 3 16 C1.68 15.34 0.36 14.68 -1 14 C-0.01 13.67 0.98 13.34 2 13 C1.85851011 11.3954444 1.71164314 9.79136233 1.5625 8.1875 C1.48128906 7.29417969 1.40007813 6.40085937 1.31640625 5.48046875 C1.06510233 2.87256441 1.06510233 2.87256441 0 0 Z " transform="translate(41 85)" class="color0F2045 svgShape"></path><path fill="#edff66" d="M0 0 C2.0625 0.4375 2.0625 0.4375 4 1 C4 1.66 4 2.32 4 3 C6.475 3.99 6.475 3.99 9 5 C8.34 5.66 7.68 6.32 7 7 C7 6.34 7 5.68 7 5 C5.576875 4.8453125 5.576875 4.8453125 4.125 4.6875 C1 4 1 4 -1 1 C-0.67 0.67 -0.34 0.34 0 0 Z " transform="translate(67 108)" class="color1F3973 svgShape"></path><path fill="#edff66" d="M0 0 C2 2 2 2 2 5 C2.99 4.67 3.98 4.34 5 4 C5 4.66 5 5.32 5 6 C2.35261084 7.4606285 1.10551666 8 -2 8 C-2 7.34 -2 6.68 -2 6 C-1.34 5.67 -0.68 5.34 0 5 C-0.2784375 4.0409375 -0.2784375 4.0409375 -0.5625 3.0625 C-0.7790625 2.0415625 -0.7790625 2.0415625 -1 1 C-0.67 0.67 -0.34 0.34 0 0 Z " transform="translate(93 103)" class="color070811 svgShape"></path><path fill="#edff66" d="M0 0 C1.32 0.33 2.64 0.66 4 1 C4 3.31 4 5.62 4 8 C3.01 7.67 2.02 7.34 1 7 C0.67 4.69 0.34 2.38 0 0 Z " transform="translate(7 69)" class="color1A3A7A svgShape"></path><path fill="#edff66" d="M0 0 C0.33 0.66 0.66 1.32 1 2 C2.65 2 4.3 2 6 2 C6 2.66 6 3.32 6 4 C6.66 4.33 7.32 4.66 8 5 C5.36 5 2.72 5 0 5 C-0.5625 3.0625 -0.5625 3.0625 -1 1 C-0.67 0.67 -0.34 0.34 0 0 Z " transform="translate(150 70)" class="color021345 svgShape"></path><path fill="#edff66" d="M0 0 C0 3.66666667 0 7.33333333 0 11 C-0.66 11 -1.32 11 -2 11 C-3.55829701 7.96997804 -4.16384649 6.60077048 -3.25 3.25 C-2 1 -2 1 0 0 Z " transform="translate(93 83)" class="color0D1D45 svgShape"></path><path fill="#edff66" d="M0 0 C2 2 2 2 2.4375 4.375 C2 7 2 7 -0.5 9.3125 C-1.7375 10.1478125 -1.7375 10.1478125 -3 11 C-2.690625 10.484375 -2.38125 9.96875 -2.0625 9.4375 C-0.70940713 6.33334577 -0.38640576 3.34884993 0 0 Z " transform="translate(101 98)" class="color050C2A svgShape"></path><path fill="#edff66" d="M0 0 C1.32 0 2.64 0 4 0 C3.67 0.99 3.34 1.98 3 3 C2.34 2.67 1.68 2.34 1 2 C1 3.65 1 5.3 1 7 C0.34 7 -0.32 7 -1 7 C-1.04254356 5.00045254 -1.04080783 2.99958364 -1 1 C-0.67 0.67 -0.34 0.34 0 0 Z " transform="translate(118 74)" class="color0C1B48 svgShape"></path><path fill="#edff66" d="M0 0 C2.09350689 3.4019487 2.17942163 6.05272412 2 10 C1.01 10.495 1.01 10.495 0 11 C-0.66 10.67 -1.32 10.34 -2 10 C-2 9.01 -2 8.02 -2 7 C-1.34 7 -0.68 7 0 7 C0 4.69 0 2.38 0 0 Z " transform="translate(85 71)" class="color0F2660 svgShape"></path><path fill="#edff66" d="M0 0 C1.32 0 2.64 0 4 0 C4 1.98 4 3.96 4 6 C3.01 6.33 2.02 6.66 1 7 C0.67 4.69 0.34 2.38 0 0 Z " transform="translate(17 69)" class="color1C387F svgShape"></path><path fill="#edff66" d="M0 0 C2.31 0.66 4.62 1.32 7 2 C7 2.99 7 3.98 7 5 C6.34 5 5.68 5 5 5 C4.67 4.34 4.34 3.68 4 3 C3.01 3.495 3.01 3.495 2 4 C2 3.34 2 2.68 2 2 C0.68 2.33 -0.64 2.66 -2 3 C-1.34 2.01 -0.68 1.02 0 0 Z " transform="translate(95 65)" class="color0B2769 svgShape"></path><path fill="#edff66" d="M0 0 C1.6875 2.5 1.6875 2.5 3 5 C0.69 4.67 -1.62 4.34 -4 4 C-4.33 3.01 -4.66 2.02 -5 1 C-3 0 -3 0 0 0 Z " transform="translate(67 64)" class="color122867 svgShape"></path><path fill="#edff66" d="M0 0 C0.33 0 0.66 0 1 0 C1.05389087 1.95803507 1.09274217 3.91648909 1.125 5.875 C1.14820313 6.96554688 1.17140625 8.05609375 1.1953125 9.1796875 C1 12 1 12 -1 14 C-1 10.83772601 -0.82985212 7.88359512 -0.5 4.75 C-0.4071875 3.85796875 -0.314375 2.9659375 -0.21875 2.046875 C-0.1465625 1.37140625 -0.074375 0.6959375 0 0 Z " transform="translate(139 91)" class="color19307E svgShape"></path><path fill="#edff66" d="M0 0 C-3.18762365 2.12508244 -5.26512223 2.5020163 -9 3 C-9.33 2.01 -9.66 1.02 -10 0 C-6.42355152 -1.2380014 -3.66305234 -0.74926071 0 0 Z " transform="translate(153 84)" class="color1E407B svgShape"></path><path fill="#edff66" d="M0 0 C2.64 0 5.28 0 8 0 C7.01 0.33 6.02 0.66 5 1 C4.67 1.99 4.34 2.98 4 4 C2.68 3.34 1.36 2.68 0 2 C0 1.34 0 0.68 0 0 Z " transform="translate(143 78)" class="color0B184C svgShape"></path><path fill="#edff66" d="M0 0 C0.66 0 1.32 0 2 0 C2.33 2.31 2.66 4.62 3 7 C2.01 7 1.02 7 0 7 C-0.38133299 5.0085944 -0.71325582 3.00720923 -1 1 C-0.67 0.67 -0.34 0.34 0 0 Z " transform="translate(77 70)" class="color1E3C7F svgShape"></path><path fill="#edff66" d="M0 0 C0.66 0 1.32 0 2 0 C2.66 2.31 3.32 4.62 4 7 C2.35 6.67 0.7 6.34 -1 6 C-0.67 4.02 -0.34 2.04 0 0 Z " transform="translate(50 73)" class="color1B3E7C svgShape"></path><path d="M0 0 C2 1 2 1 2 1 Z " transform="translate(156 49)"></path><path d="M0 0 C2 1 2 1 2 1 Z " transform="translate(154 40)"></path><path><path><path><path><path><path><path><path><path fill="#edff66" class="color1A1A1A svgShape"></path><path><path><path fill="#edff66" class="color000040 svgShape"></path><path><path fill="#edff66" class="color005 svgShape"></path><path fill="#edff66" class="color055 svgShape"></path><path><path><path><path fill="#edff66" class="color004040 svgShape"></path><path><path><path><path><path><path><path><path fill="#edff66" class="color002424 svgShape"></path><path><path><path><path><path><path><path><path><path fill="#edff66" class="color404040 svgShape"></path><path fill="#edff66" class="colornavy svgShape"></path><path><path><path><path fill="#edff66" class="color002449 svgShape"></path><path fill="#edff66" class="colornavy svgShape"></path><path><path><path><path><path><path><path><path><path><path><path><path><path><path><path><path><path><path><path><path><path><path><path><path><path><path><path><path><path><path><path><path><path><path><path><path><path><path><path><path><path><path><path><path><path><path></path></path></path></path></path></path></path></path></path></path></path></path></path></path></path></path></path></path></path></path></path></path></path></path></path></path></path></path></path></path></path></path></path></path></path></path></path></path></path></path></path></path></path></path></path></path></path></path></path></path></path></path></path></path></path></path></path></path></path></path></path></path></path></path></path></path></path></path></path></path></path></path></path></path></path></path></path></path></svg></g></svg>