<svg id="SvgjsSvg1741" width="288" height="288" xmlns="http://www.w3.org/2000/svg" version="1.1" xmlns:xlink="http://www.w3.org/1999/xlink" xmlns:svgjs="http://svgjs.com/svgjs"><path id="SvgjsPath1788" d="M 144,0 C 5,0 0,5 0,144 0,283 5,288 144,288 283,288 288,283 288,144 288,5 283,0 144,0 Z" transform="matrix(0.7916,0,0,0.7916,30.009600000000006,30.009600000000006)" fill="#040404"></path><defs id="SvgjsDefs1742"></defs><g id="SvgjsG1743" transform="matrix(0.65,0,0,0.65,55.71491203308105,48.35346450805663)"><svg xmlns="http://www.w3.org/2000/svg" viewBox="0 0 275 183" width="288" height="288"><path fill="#edff66" d="M0 0 C0 0.66 0 1.32 0 2 C-0.83845459 1.98952637 -1.67690918 1.97905273 -2.54077148 1.96826172 C-42.12320031 1.54180255 -81.45017893 4.16828722 -118.6796875 18.73828125 C-125.77578071 21.43479667 -131.52228064 22.67604055 -139 21 C-141 19.4375 -141 19.4375 -142 18 C-140.16521723 12.49565169 -137.19840714 10.15990397 -132.31640625 7.4453125 C-125.16890657 4.33038331 -117.58970287 2.68072157 -110 1 C-109.32114746 0.84402344 -108.64229492 0.68804687 -107.94287109 0.52734375 C-73.53369904 -7.19840714 -34.60094026 -6.24278001 0 0 Z " transform="translate(216 107)" class="colorE80506 svgShape"></path><path fill="#edff66" d="M0 0 C0.495 15.345 0.495 15.345 1 31 C2.98 29.02 4.96 27.04 7 25 C7.66 25 8.32 25 9 25 C9.33 23.68 9.66 22.36 10 21 C8.68 21 7.36 21 6 21 C6 20.01 6 19.02 6 18 C11.61 18 17.22 18 23 18 C23 18.99 23 19.98 23 21 C21.3970947 21.81498562 19.79262722 22.62689927 18.1875 23.4375 C17.29417969 23.88996094 16.40085938 24.34242187 15.48046875 24.80859375 C13 26 13 26 10 27 C11.92431415 29.98787995 13.86659071 32.96364785 15.8125 35.9375 C16.35970703 36.78763672 16.90691406 37.63777344 17.47070312 38.51367188 C18.00244141 39.32255859 18.53417969 40.13144531 19.08203125 40.96484375 C19.56905518 41.7137085 20.0560791 42.46257324 20.55786133 43.23413086 C21.9728889 45.2880503 21.9728889 45.2880503 25 46 C25 46.99 25 47.98 25 49 C19.78374102 49.73353642 15.19092657 50.06547835 10 49 C6.35574743 45.45040334 4.32996081 41.47378151 2 37 C1.34 36.67 0.68 36.34 0 36 C0.06006078 37.45947705 0.1488689 38.91779272 0.25 40.375 C0.29640625 41.18710938 0.3428125 41.99921875 0.390625 42.8359375 C0.7922092 45.18838927 0.7922092 45.18838927 3.046875 46.2890625 C3.69140625 46.52367187 4.3359375 46.75828125 5 47 C5 47.66 5 48.32 5 49 C-1.93 49 -8.86 49 -16 49 C-16 48.01 -16 47.02 -16 46 C-14.02 45.505 -14.02 45.505 -12 45 C-12 31.8 -12 18.6 -12 5 C-13.65 4.67 -15.3 4.34 -17 4 C-17 3.01 -17 2.02 -17 1 C-14.3541898 0.832959 -11.70835369 0.66634934 -9.0625 0.5 C-8.30775391 0.45230469 -7.55300781 0.40460937 -6.77539062 0.35546875 C-1.11328125 0 -1.11328125 0 0 0 Z " transform="translate(146 48)" class="color090443 svgShape"></path><path fill="#edff66" d="M0 0 C2.77827079 2.16298083 3.94892082 3.50602955 5.29296875 6.78515625 C5.63598595 10.06769134 5.5763136 13.302068 5.48046875 16.59765625 C5.46016602 17.92313477 5.46016602 17.92313477 5.43945312 19.27539062 C5.40426092 21.44557648 5.3504586 23.61544658 5.29296875 25.78515625 C6.94296875 26.11515625 8.59296875 26.44515625 10.29296875 26.78515625 C10.29296875 28.10515625 10.29296875 29.42515625 10.29296875 30.78515625 C7.40376181 31.74822523 5.37048994 31.98074985 2.35546875 32.03515625 C1.50082031 32.0609375 0.64617187 32.08671875 -0.234375 32.11328125 C-3.16847603 31.72392187 -4.51403326 30.71865796 -6.70703125 28.78515625 C-7.26519531 29.27113281 -7.82335937 29.75710937 -8.3984375 30.2578125 C-12.27554166 32.82286788 -16.22021705 32.41577472 -20.70703125 31.78515625 C-23.83203125 30.28515625 -23.83203125 30.28515625 -25.70703125 27.78515625 C-26.34340199 24.98741822 -26.49122628 22.55417595 -25.70703125 19.78515625 C-22.95093898 16.33366106 -20.2894767 14.97930473 -16.14453125 13.59765625 C-14.71947266 13.11232422 -14.71947266 13.11232422 -13.265625 12.6171875 C-12.42128906 12.34261719 -11.57695312 12.06804687 -10.70703125 11.78515625 C-9.71703125 11.45515625 -8.72703125 11.12515625 -7.70703125 10.78515625 C-7.70703125 8.47515625 -7.70703125 6.16515625 -7.70703125 3.78515625 C-9.78256773 3.23167985 -11.55069089 2.78515625 -13.70703125 2.78515625 C-13.37703125 4.76515625 -13.04703125 6.74515625 -12.70703125 8.78515625 C-14.33203125 10.34765625 -14.33203125 10.34765625 -16.70703125 11.78515625 C-19.83203125 11.66015625 -19.83203125 11.66015625 -22.70703125 10.78515625 C-24.70703125 7.78515625 -24.70703125 7.78515625 -24.83203125 5.34765625 C-23.39970889 2.0851442 -21.50766447 0.94002655 -18.296875 -0.48828125 C-12.42293572 -2.13617372 -5.62781139 -2.52561232 0 0 Z M-12.70703125 17.78515625 C-14.12280602 18.96939951 -14.12280602 18.96939951 -13.76953125 22.34765625 C-13.74890625 23.48203125 -13.72828125 24.61640625 -13.70703125 25.78515625 C-11.85978073 26.47675026 -11.85978073 26.47675026 -9.70703125 26.78515625 C-8.71703125 26.12515625 -7.72703125 25.46515625 -6.70703125 24.78515625 C-6.34287078 22.34822314 -6.34287078 22.34822314 -6.51953125 19.66015625 C-6.54660156 18.75007813 -6.57367188 17.84 -6.6015625 16.90234375 C-6.63636719 16.20367187 -6.67117187 15.505 -6.70703125 14.78515625 C-8.87021749 14.78515625 -10.93374514 16.67685243 -12.70703125 17.78515625 Z " transform="translate(219.707 66.215)" class="color060436 svgShape"></path><path fill="#edff66" d="M0 0 C0 1.32 0 2.64 0 4 C-0.804375 4.12375 -1.60875 4.2475 -2.4375 4.375 C-3.283125 4.58125 -4.12875 4.7875 -5 5 C-6.53297297 8.06594594 -6.12131455 11.27111853 -6.09765625 14.6328125 C-6.09553383 15.76056595 -6.09553383 15.76056595 -6.09336853 16.91110229 C-6.08776465 19.3157751 -6.07521157 21.72035527 -6.0625 24.125 C-6.0574855 25.75390491 -6.0529225 27.38281127 -6.04882812 29.01171875 C-6.03779397 33.00784827 -6.02052679 37.00390842 -6 41 C-4.39194485 41.0118419 -2.78386462 41.02031152 -1.17578125 41.02734375 C-0.28028564 41.03241943 0.61520996 41.03749512 1.5378418 41.04272461 C4.69923697 40.98786649 6.39206548 40.86281037 9 39 C10.90296711 36.10854719 12.4941524 33.114221 14 30 C15.32 30.33 16.64 30.66 18 31 C17.67 35.62 17.34 40.24 17 45 C3.14 45 -10.72 45 -25 45 C-25 44.01 -25 43.02 -25 42 C-22.03 41.505 -22.03 41.505 -19 41 C-19 29.12 -19 17.24 -19 5 C-21.97 4.505 -21.97 4.505 -25 4 C-25 3.01 -25 2.02 -25 1 C-16.64380043 0.24524649 -8.39004715 -0.13605482 0 0 Z " transform="translate(90 52)" class="color0A0446 svgShape"></path><path fill="#edff66" d="M0 0 C0.33 14.52 0.66 29.04 1 44 C2.485 44.495 2.485 44.495 4 45 C4 45.99 4 46.98 4 48 C-2.27 48 -8.54 48 -15 48 C-15 47.01 -15 46.02 -15 45 C-14.01 44.505 -14.01 44.505 -13 44 C-13 31.13 -13 18.26 -13 5 C-15.475 4.01 -15.475 4.01 -18 3 C-18 2.01 -18 1.02 -18 0 C-15.93831015 -0.19620767 -13.87559002 -0.38160753 -11.8125 -0.5625 C-10.08966797 -0.71912109 -10.08966797 -0.71912109 -8.33203125 -0.87890625 C-5 -1 -5 -1 0 0 Z " transform="translate(187 49)" class="color08043D svgShape"></path><path fill="#edff66" d="M0 0 C0.33 8.91 0.66 17.82 1 27 C2.32 27.66 3.64 28.32 5 29 C5 29.99 5 30.98 5 32 C-1.93 32 -8.86 32 -16 32 C-16 31.01 -16 30.02 -16 29 C-14.68 28.67 -13.36 28.34 -12 28 C-12 20.74 -12 13.48 -12 6 C-14.475 5.01 -14.475 5.01 -17 4 C-17 3.01 -17 2.02 -17 1 C-14.9168207 0.83141902 -12.83344956 0.66520745 -10.75 0.5 C-9.58984375 0.4071875 -8.4296875 0.314375 -7.234375 0.21875 C-4.82731342 0.05595356 -2.41256049 0 0 0 Z " transform="translate(124 65)" class="color040230 svgShape"></path><path fill="#edff66" d="M0 0 C0 1.32 0 2.64 0 4 C-0.804375 4.12375 -1.60875 4.2475 -2.4375 4.375 C-3.283125 4.58125 -4.12875 4.7875 -5 5 C-6.53297297 8.06594594 -6.12131455 11.27111853 -6.09765625 14.6328125 C-6.09553383 15.76056595 -6.09553383 15.76056595 -6.09336853 16.91110229 C-6.08776465 19.3157751 -6.07521157 21.72035527 -6.0625 24.125 C-6.0574855 25.75390491 -6.0529225 27.38281127 -6.04882812 29.01171875 C-6.03779397 33.00784827 -6.02052679 37.00390842 -6 41 C-4.39194485 41.0118419 -2.78386462 41.02031152 -1.17578125 41.02734375 C-0.28028564 41.03241943 0.61520996 41.03749512 1.5378418 41.04272461 C4.69923697 40.98786649 6.39206548 40.86281037 9 39 C10.90296711 36.10854719 12.4941524 33.114221 14 30 C15.32 30.33 16.64 30.66 18 31 C17.67 35.62 17.34 40.24 17 45 C3.14 45 -10.72 45 -25 45 C-25 44.01 -25 43.02 -25 42 C-22.03 41.505 -22.03 41.505 -19 41 C-19 29.12 -19 17.24 -19 5 C-21.97 4.505 -21.97 4.505 -25 4 C-25 3.01 -25 2.02 -25 1 C-16.64380043 0.24524649 -8.39004715 -0.13605482 0 0 Z M-19 2 C-18.67 2.66 -18.34 3.32 -18 4 C-17.91301772 6.91699274 -17.88448077 9.80982548 -17.90234375 12.7265625 C-17.9037587 13.58937836 -17.90517365 14.45219421 -17.90663147 15.34115601 C-17.91223812 18.1024723 -17.92479173 20.86370812 -17.9375 23.625 C-17.94251414 25.4947905 -17.9470772 27.36458226 -17.95117188 29.234375 C-17.96220971 33.82294777 -17.9794788 38.41146023 -18 43 C-16.37675914 43.22162329 -14.751279 43.42689803 -13.125 43.625 C-12.22007813 43.74101563 -11.31515625 43.85703125 -10.3828125 43.9765625 C-9.59648438 43.98429687 -8.81015625 43.99203125 -8 44 C-7.34 43.34 -6.68 42.68 -6 42 C-6.66 42 -7.32 42 -8 42 C-8 29.79 -8 17.58 -8 5 C-7.34 4.67 -6.68 4.34 -6 4 C-6 3.01 -6 2.02 -6 1 C-10.44209357 0.89165625 -14.61414671 1.29826347 -19 2 Z " transform="translate(90 52)" class="color040228 svgShape"></path><path fill="#ebfb75" d="M0 0 C-3.12764594 1.79303741 -5.69230127 2.35222685 -9.26953125 2.67578125 C-10.83344604 2.8303479 -10.83344604 2.8303479 -12.42895508 2.98803711 C-13.5455249 3.09510986 -14.66209473 3.20218262 -15.8125 3.3125 C-30.97094016 4.914646 -45.86495275 7.57109406 -60.375 12.3125 C-65.5206517 13.99368515 -69.59899062 14.52267833 -75 14 C-75.99 13.34 -76.98 12.68 -78 12 C-60.91986136 3.53199877 -41.7867445 1.29290798 -23 0 C-21.4582304 -0.12240832 -19.91655871 -0.24605768 -18.375 -0.37109375 C-12.07059997 -0.84748257 -6.27394688 -1.06705235 0 0 Z " transform="translate(159 104)" class="colorFB7875 svgShape"></path><path fill="#edff66" d="M0 0 C21.1813534 -0.31807508 42.10664769 0.23037406 63 4 C63 4.66 63 5.32 63 6 C42.21 6 21.42 6 0 6 C0 4 0 4 2 2 C1.34 1.34 0.68 0.68 0 0 Z " transform="translate(153 103)" class="colorDC1313 svgShape"></path><path fill="#edff66" d="M0 0 C0 10.23 0 20.46 0 31 C-0.66 31.33 -1.32 31.66 -2 32 C-2 22.43 -2 12.86 -2 3 C-4.97 3 -7.94 3 -11 3 C-10.34 3.66 -9.68 4.32 -9 5 C-8.81219601 7.98976403 -8.74450368 10.885302 -8.76953125 13.875 C-8.77021858 15.19540283 -8.77021858 15.19540283 -8.7709198 16.54248047 C-8.77394343 18.40528713 -8.78183305 20.26809124 -8.79418945 22.13085938 C-8.81242579 24.98837199 -8.8146993 27.84556032 -8.81445312 30.703125 C-8.81936904 32.51041948 -8.82519768 34.31771175 -8.83203125 36.125 C-8.83314407 36.98335449 -8.8342569 37.84170898 -8.83540344 38.72607422 C-8.88393609 44.76787219 -8.88393609 44.76787219 -10 47 C-7.03 47 -4.06 47 -1 47 C-0.67 46.01 -0.34 45.02 0 44 C2.5 45.375 2.5 45.375 5 47 C5 47.66 5 48.32 5 49 C-1.93 49 -8.86 49 -16 49 C-16 48.01 -16 47.02 -16 46 C-14.02 45.505 -14.02 45.505 -12 45 C-12 31.8 -12 18.6 -12 5 C-13.65 4.67 -15.3 4.34 -17 4 C-17 3.01 -17 2.02 -17 1 C-14.3541898 0.832959 -11.70835369 0.66634934 -9.0625 0.5 C-8.30775391 0.45230469 -7.55300781 0.40460937 -6.77539062 0.35546875 C-1.11328125 0 -1.11328125 0 0 0 Z " transform="translate(146 48)" class="color070532 svgShape"></path><path fill="#edff66" d="M0 0 C2.1640625 0.77734375 2.1640625 0.77734375 4.625 1.9375 C5.44226563 2.31777344 6.25953125 2.69804688 7.1015625 3.08984375 C7.72804687 3.39019531 8.35453125 3.69054687 9 4 C9.01981934 4.68102783 9.03963867 5.36205566 9.06005859 6.0637207 C9.15526983 9.14703917 9.26496466 12.22967649 9.375 15.3125 C9.4059375 16.38435547 9.436875 17.45621094 9.46875 18.56054688 C9.50742188 19.58857422 9.54609375 20.61660156 9.5859375 21.67578125 C9.6173584 22.62364502 9.6487793 23.57150879 9.68115234 24.5480957 C9.8489051 27.2530269 9.8489051 27.2530269 12 30 C8.33291043 30.94296589 5.64653273 31.11421833 2 30 C0.75786642 27.51573284 0.63691019 25.45252329 0.375 22.6875 C0.27960938 21.74261719 0.18421875 20.79773438 0.0859375 19.82421875 C0.00040359 17.01326355 0.37822963 14.73038292 1 12 C1.40150143 7.01962823 1.40150143 7.01962823 -0.5 2.5625 C-0.995 2.046875 -1.49 1.53125 -2 1 C-1.34 0.67 -0.68 0.34 0 0 Z " transform="translate(214 66)" class="color0A0446 svgShape"></path><path fill="#edff66" d="M0 0 C1.45792884 -0.05399736 2.91642712 -0.09279177 4.375 -0.125 C5.18710938 -0.14820312 5.99921875 -0.17140625 6.8359375 -0.1953125 C9 0 9 0 11 2 C11.31884766 4.52197266 11.31884766 4.52197266 11.4140625 7.6640625 C11.45273438 8.78554687 11.49140625 9.90703125 11.53125 11.0625 C11.5621875 12.238125 11.593125 13.41375 11.625 14.625 C11.66367188 15.80835937 11.70234375 16.99171875 11.7421875 18.2109375 C11.83668845 21.14046691 11.92224558 24.06998597 12 27 C8.625 27.625 8.625 27.625 5 28 C3 26 3 26 2.86474609 23.75341797 C2.91711426 22.84221191 2.96948242 21.93100586 3.0234375 20.9921875 C3.075 20.00605469 3.1265625 19.01992187 3.1796875 18.00390625 C3.24414062 16.97136719 3.30859375 15.93882813 3.375 14.875 C3.43171875 13.83472656 3.4884375 12.79445313 3.546875 11.72265625 C3.68861209 9.14776582 3.84004554 6.5738126 4 4 C2.68 3.34 1.36 2.68 0 2 C0 1.34 0 0.68 0 0 Z " transform="translate(111 68)" class="color0B0447 svgShape"></path><path fill="#edff66" d="M0 0 C-0.99 0.33 -1.98 0.66 -3 1 C-3 1.66 -3 2.32 -3 3 C1.95 3 6.9 3 12 3 C12 3.33 12 3.66 12 4 C11.22213135 4.08975098 10.4442627 4.17950195 9.64282227 4.27197266 C-12.10914352 6.83591079 -32.86750313 11.18194902 -54 17 C-53.67 16.34 -53.34 15.68 -53 15 C-52.01 15 -51.02 15 -50 15 C-50 14.34 -50 13.68 -50 13 C-48.35 13 -46.7 13 -45 13 C-45 12.34 -45 11.68 -45 11 C-42.36 11 -39.72 11 -37 11 C-37 10.34 -37 9.68 -37 9 C-35.9275 8.896875 -34.855 8.79375 -33.75 8.6875 C-30.02565909 8.00470417 -28.76898184 7.38705331 -26 5 C-22.93502781 3.19313866 -20.34283153 2.63059486 -16.8125 2.3125 C-15.93207031 2.22613281 -15.05164063 2.13976562 -14.14453125 2.05078125 C-13.08298828 2.02564453 -13.08298828 2.02564453 -12 2 C-11.505 2.495 -11.505 2.495 -11 3 C-10.67 2.505 -10.34 2.01 -10 1.5 C-6.82427253 -0.88179561 -3.89753934 -0.19168226 0 0 Z " transform="translate(156 106)" class="colorDD0A0A svgShape"></path><path fill="#edff66" d="M0 0 C0.90105469 0.11085938 1.80210938 0.22171875 2.73046875 0.3359375 C3.76107422 0.47902344 3.76107422 0.47902344 4.8125 0.625 C4.8125 2.935 4.8125 5.245 4.8125 7.625 C9.2675 7.13 9.2675 7.13 13.8125 6.625 C13.4825 7.285 13.1525 7.945 12.8125 8.625 C5.82229352 10.95506883 -0.98070184 12.49342915 -8.1875 10.625 C-10.1875 9.0625 -10.1875 9.0625 -11.1875 7.625 C-8.46265176 1.65628481 -6.77771485 -0.88022271 0 0 Z " transform="translate(85.188 117.375)" class="colorDE090B svgShape"></path><path fill="#edff66" d="M0 0 C3.25 1.3125 3.25 1.3125 4.25 2.3125 C4.83184143 8.59638747 4.83184143 8.59638747 2.625 11.3125 C-0.59717097 12.66920357 -2.42948024 12.30159099 -5.75 11.3125 C-8.21936828 9.66625448 -8.6527197 8.78674146 -9.25 5.875 C-8.75 3.3125 -8.75 3.3125 -6.6875 0.875 C-3.75 -0.6875 -3.75 -0.6875 0 0 Z " transform="translate(119.75 48.688)" class="color06032C svgShape"></path><path fill="#edff66" d="M0 0 C0.66 0.99 1.32 1.98 2 3 C-0.64 3.33 -3.28 3.66 -6 4 C-5.75601219 4.8708725 -5.75601219 4.8708725 -5.50709534 5.75933838 C-4.70559077 9.30088254 -4.87870368 12.87198745 -4.90234375 16.484375 C-4.9037587 17.29996887 -4.90517365 18.11556274 -4.90663147 18.95587158 C-4.91221697 21.55395212 -4.92476679 24.15194563 -4.9375 26.75 C-4.94251688 28.51432167 -4.94707946 30.27864469 -4.95117188 32.04296875 C-4.96218165 36.36201256 -4.97943631 40.68099154 -5 45 C-5.66 45 -6.32 45 -7 45 C-7.33 32.13 -7.66 19.26 -8 6 C-10.475 5.01 -10.475 5.01 -13 4 C-13 3.01 -13 2.02 -13 1 C-6.565 0.505 -6.565 0.505 0 0 Z " transform="translate(182 48)" class="color05032C svgShape"></path><path fill="#edff66" d="M0 0 C1.32 0.33 2.64 0.66 4 1 C3.69240822 2.97993541 3.3787932 4.95893599 3.0625 6.9375 C2.80146484 8.59072266 2.80146484 8.59072266 2.53515625 10.27734375 C2 13 2 13 1 14 C-0.41570123 14.08651611 -1.835595 14.10704904 -3.25390625 14.09765625 C-4.10791016 14.09443359 -4.96191406 14.09121094 -5.84179688 14.08789062 C-6.73962891 14.07951172 -7.63746094 14.07113281 -8.5625 14.0625 C-9.46419922 14.05798828 -10.36589844 14.05347656 -11.29492188 14.04882812 C-13.53001314 14.03700225 -15.76497437 14.0205222 -18 14 C-18.33 13.34 -18.66 12.68 -19 12 C-18.11957031 11.9484375 -17.23914063 11.896875 -16.33203125 11.84375 C-9.63427303 11.41118707 -9.63427303 11.41118707 -4.05859375 8.15625 C-2.83474836 6.13964506 -1.85930298 4.19396507 -1 2 C-0.67 1.34 -0.34 0.68 0 0 Z " transform="translate(104 82)" class="color050431 svgShape"></path><path fill="#edff66" d="M0 0 C7.52719602 -0.25515919 14.58851545 0.71702277 22 2 C22 2.66 22 3.32 22 4 C6.49 4 -9.02 4 -25 4 C-24.67 3.34 -24.34 2.68 -24 2 C-16.08 2 -8.16 2 0 2 C0 1.34 0 0.68 0 0 Z " transform="translate(194 105)" class="colorC82829 svgShape"></path><path fill="#e1f073" d="M0 0 C-3.29629138 1.91591996 -6.16485211 2.43477584 -9.9375 2.8515625 C-11.65066406 3.04492188 -11.65066406 3.04492188 -13.3984375 3.2421875 C-14.58695313 3.36851563 -15.77546875 3.49484375 -17 3.625 C-18.78277344 3.82609375 -18.78277344 3.82609375 -20.6015625 4.03125 C-25.10010819 4.5288318 -29.47025019 5 -34 5 C-33.67 3.68 -33.34 2.36 -33 1 C-28.81351826 0.63304843 -24.62574246 0.28372804 -20.4375 -0.0625 C-19.25607422 -0.16626953 -18.07464844 -0.27003906 -16.85742188 -0.37695312 C-11.04263471 -0.84930278 -5.72731521 -1.20265209 0 0 Z " transform="translate(159 104)" class="colorF07673 svgShape"></path><path fill="#edff66" d="M0 0 C0 0.66 0 1.32 0 2 C-2.64 2 -5.28 2 -8 2 C-8.33 2.99 -8.66 3.98 -9 5 C-10.14339844 5.13277344 -11.28679687 5.26554687 -12.46484375 5.40234375 C-13.9557562 5.5805031 -15.44664018 5.75890082 -16.9375 5.9375 C-17.69224609 6.02451172 -18.44699219 6.11152344 -19.22460938 6.20117188 C-22.92187458 6.34324099 -22.92187458 6.34324099 -26 8 C-27.51928038 8.07179964 -29.04167482 8.08392007 -30.5625 8.0625 C-31.38878906 8.05347656 -32.21507813 8.04445313 -33.06640625 8.03515625 C-33.70449219 8.02355469 -34.34257813 8.01195313 -35 8 C-32.66532814 5.66532814 -31.45088416 5.45758232 -28.2734375 4.74609375 C-26.84837891 4.42415039 -26.84837891 4.42415039 -25.39453125 4.09570312 C-24.39808594 3.87849609 -23.40164062 3.66128906 -22.375 3.4375 C-21.40175781 3.21642578 -20.42851563 2.99535156 -19.42578125 2.76757812 C-12.9896202 1.3339514 -6.62076694 0 0 0 Z " transform="translate(126 105)" class="colorF59E9E svgShape"></path><path fill="#edff66" d="M0 0 C3.64620389 3.22548806 6.00199595 6.96875206 8.53515625 11.07421875 C9.93650917 13.29195969 9.93650917 13.29195969 13 14 C13 14.99 13 15.98 13 17 C8.05 17 3.1 17 -2 17 C-2.99 15.02 -3.98 13.04 -5 11 C-2.00667261 11.9977758 -1.05233685 12.7522025 1 15 C2.65 14.34 4.3 13.68 6 13 C5.34 12.01 4.68 11.02 4 10 C4 9.01 4 8.02 4 7 C3.34 7 2.68 7 2 7 C0.515 4.03 0.515 4.03 -1 1 C-0.67 0.67 -0.34 0.34 0 0 Z " transform="translate(158 80)" class="color060336 svgShape"></path><path fill="#edff66" d="M0 0 C3.96 0 7.92 0 12 0 C12 0.33 12 0.66 12 1 C11.30028076 1.16604736 10.60056152 1.33209473 9.87963867 1.50317383 C6.64847769 2.27107731 3.4179889 3.04177422 0.1875 3.8125 C-0.91271484 4.07353516 -2.01292969 4.33457031 -3.14648438 4.60351562 C-10.13590689 6.27355463 -17.08015438 8.06153879 -24 10 C-23.67 9.34 -23.34 8.68 -23 8 C-22.01 8 -21.02 8 -20 8 C-20 7.34 -20 6.68 -20 6 C-18.35 6 -16.7 6 -15 6 C-15 5.34 -15 4.68 -15 4 C-12.36 4 -9.72 4 -7 4 C-7 3.34 -7 2.68 -7 2 C-3.535 1.505 -3.535 1.505 0 1 C0 0.67 0 0.34 0 0 Z " transform="translate(126 113)" class="colorC71511 svgShape"></path><path fill="#edff66" d="M0 0 C1.23556641 0.01740234 1.23556641 0.01740234 2.49609375 0.03515625 C3.32238281 0.04417969 4.14867188 0.05320313 5 0.0625 C5.63808594 0.07410156 6.27617188 0.08570313 6.93359375 0.09765625 C6.62109375 2.97265625 6.62109375 2.97265625 5.93359375 6.09765625 C2.93359375 8.09765625 2.93359375 8.09765625 0.87109375 7.78515625 C-1.06640625 7.09765625 -1.06640625 7.09765625 -3.06640625 6.09765625 C-3.10912725 4.4315372 -3.10704457 2.7638274 -3.06640625 1.09765625 C-2.06640625 0.09765625 -2.06640625 0.09765625 0 0 Z " transform="translate(116.066 50.902)" class="color0A0545 svgShape"></path><path fill="#edff66" d="M0 0 C2.10209857 3.15314785 2.2434761 3.86103081 2.1953125 7.44921875 C2.18886719 8.29677734 2.18242187 9.14433594 2.17578125 10.01757812 C2.15902344 10.89865234 2.14226562 11.77972656 2.125 12.6875 C2.11597656 13.58017578 2.10695312 14.47285156 2.09765625 15.39257812 C2.07409748 17.59532314 2.04120329 19.79752588 2 22 C3.65 22.33 5.3 22.66 7 23 C7 24.32 7 25.64 7 27 C5.35 27.33 3.7 27.66 2 28 C1.855625 27.360625 1.71125 26.72125 1.5625 26.0625 C1.18992819 24.02454854 1.18992819 24.02454854 0 23 C-0.08713831 21.29227642 -0.10700007 19.58101351 -0.09765625 17.87109375 C-0.09443359 16.83662109 -0.09121094 15.80214844 -0.08789062 14.73632812 C-0.07951172 13.64771484 -0.07113281 12.55910156 -0.0625 11.4375 C-0.05798828 10.34501953 -0.05347656 9.25253906 -0.04882812 8.12695312 C-0.03699826 5.41791505 -0.02051543 2.70898401 0 0 Z " transform="translate(223 70)" class="color020124 svgShape"></path><path fill="#edff66" d="M0 0 C-0.33 0.66 -0.66 1.32 -1 2 C-1 3.32 -1 4.64 -1 6 C-6.75 7.125 -6.75 7.125 -9 6 C-8.8125 3.125 -8.8125 3.125 -8 0 C-4.35861881 -2.2998197 -3.68229012 -2.45486008 0 0 Z " transform="translate(206 69)" class="color090546 svgShape"></path><path fill="#edff66" d="M0 0 C0 7.92 0 15.84 0 24 C-0.33 24 -0.66 24 -1 24 C-1.33 17.07 -1.66 10.14 -2 3 C-5.63 2.67 -9.26 2.34 -13 2 C-13 2.99 -13 3.98 -13 5 C-14.32 4.67 -15.64 4.34 -17 4 C-17 3.01 -17 2.02 -17 1 C-14.9168207 0.83141902 -12.83344956 0.66520745 -10.75 0.5 C-9.58984375 0.4071875 -8.4296875 0.314375 -7.234375 0.21875 C-4.82731342 0.05595356 -2.41256049 0 0 0 Z " transform="translate(124 65)" class="color07062F svgShape"></path><path fill="#edff66" d="M0 0 C3.3 0 6.6 0 10 0 C10 1.98 10 3.96 10 6 C7.36 6 4.72 6 2 6 C1.34 4.02 0.68 2.04 0 0 Z " transform="translate(229 43)" class="color030303 svgShape"></path><path fill="#edff66" d="M0 0 C6.27 0 12.54 0 19 0 C19 0.99 19 1.98 19 3 C12.73 3 6.46 3 0 3 C0 2.01 0 1.02 0 0 Z " transform="translate(172 94)" class="color070425 svgShape"></path><path fill="#edff66" d="M0 0 C0.66 0 1.32 0 2 0 C1.67 3.63 1.34 7.26 1 11 C-1.31 11 -3.62 11 -6 11 C-5.34 9.68 -4.68 8.36 -4 7 C-3.34 7 -2.68 7 -2 7 C-1.855625 6.030625 -1.71125 5.06125 -1.5625 4.0625 C-1 1 -1 1 0 0 Z " transform="translate(105 84)" class="color080442 svgShape"></path><path fill="#edff66" d="M0 0 C-0.66 0 -1.32 0 -2 0 C-2 0.66 -2 1.32 -2 2 C-3.7015625 2.2165625 -3.7015625 2.2165625 -5.4375 2.4375 C-8.80777201 2.61171478 -8.80777201 2.61171478 -10 4 C-11.51928038 4.07179964 -13.04167482 4.08392007 -14.5625 4.0625 C-15.38878906 4.05347656 -16.21507813 4.04445313 -17.06640625 4.03515625 C-17.70449219 4.02355469 -18.34257813 4.01195313 -19 4 C-16.37412094 1.37412094 -14.22718377 1.14221649 -10.625 0.3125 C-9.48289062 0.04050781 -8.34078125 -0.23148437 -7.1640625 -0.51171875 C-4.27019132 -0.95830381 -2.70183009 -0.99155833 0 0 Z " transform="translate(110 109)" class="colorE39797 svgShape"></path><path fill="#edff66" d="M0 0 C1.32 0 2.64 0 4 0 C4 0.66 4 1.32 4 2 C4.89203125 1.9278125 5.7840625 1.855625 6.703125 1.78125 C8.45882812 1.64203125 8.45882812 1.64203125 10.25 1.5 C11.41015625 1.4071875 12.5703125 1.314375 13.765625 1.21875 C16.17268658 1.05595356 18.58743951 1 21 1 C21 1.66 21 2.32 21 3 C14.07 3 7.14 3 0 3 C0 2.01 0 1.02 0 0 Z " transform="translate(130 94)" class="color05031F svgShape"></path><path fill="#edff66" d="M0 0 C0 0.66 0 1.32 0 2 C-0.804375 2.391875 -1.60875 2.78375 -2.4375 3.1875 C-5.34717941 4.83823521 -5.34717941 4.83823521 -5.9375 8.4375 C-5.99663207 11.80802824 -5.8558861 13.27075574 -4 16 C-6 15 -6 15 -8 13 C-8.8719346 6.13351499 -8.8719346 6.13351499 -6.125 2.5625 C-2.64 0 -2.64 0 0 0 Z " transform="translate(202 81)" class="color07042B svgShape"></path><path fill="#edff66" d="M0 0 C-3.81615468 2.47045803 -7.84744248 2.43831912 -12.25 2.625 C-12.99507812 2.66367188 -13.74015625 2.70234375 -14.5078125 2.7421875 C-16.3381524 2.83605108 -18.16904143 2.91909718 -20 3 C-15.17413629 -1.82586371 -6.29878387 -1.39972975 0 0 Z " transform="translate(159 104)" class="colorEE4346 svgShape"></path><path fill="#edff66" d="M0 0 C0.99 0.33 1.98 0.66 3 1 C2.34 1.66 1.68 2.32 1 3 C0.59952556 5.32275177 0.2602896 7.65739357 0 10 C0.66 10 1.32 10 2 10 C2 10.66 2 11.32 2 12 C0.35 11.67 -1.3 11.34 -3 11 C-2.88590407 9.54077307 -2.75834456 8.08259402 -2.625 6.625 C-2.55539063 5.81289062 -2.48578125 5.00078125 -2.4140625 4.1640625 C-2 2 -2 2 0 0 Z " transform="translate(206 82)" class="color04012D svgShape"></path><path fill="#edff66" d="M0 0 C3 1 3 1 5 4 C7.6556728 4.58348752 7.6556728 4.58348752 10.625 4.6875 C11.62789062 4.75324219 12.63078125 4.81898437 13.6640625 4.88671875 C14.43492187 4.92410156 15.20578125 4.96148437 16 5 C16 4.34 16 3.68 16 3 C16.66 3 17.32 3 18 3 C18 3.99 18 4.98 18 6 C13.05 6 8.1 6 3 6 C2.01 4.02 1.02 2.04 0 0 Z " transform="translate(153 91)" class="color04021D svgShape"></path><path fill="#edff66" d="M0 0 C1.42944945 2.35438733 2.08661261 3.48032433 1.625 6.25 C1.41875 6.8275 1.2125 7.405 1 8 C0.01 7.34 -0.98 6.68 -2 6 C-2 8.31 -2 10.62 -2 13 C-4 11 -4 11 -4.375 8.75 C-3.87543369 5.08651376 -2.18045292 2.92998361 0 0 Z " transform="translate(148 78)" class="color030130 svgShape"></path><path fill="#edff66" d="M0 0 C4.20593746 0.5376522 7.6600045 0.29515871 11.8125 -0.5 C8.69893168 2.61356832 5.52601432 2.65132391 1.25 2.6875 C0.10337891 2.70876953 0.10337891 2.70876953 -1.06640625 2.73046875 C-3.1875 2.5 -3.1875 2.5 -6.1875 0.5 C-3.72686067 -0.73031967 -2.688419 -0.40719599 0 0 Z " transform="translate(87.188 115.5)" class="colorEB4D4D svgShape"></path><path fill="#edff66" d="M0 0 C2.64 0 5.28 0 8 0 C8 0.66 8 1.32 8 2 C8.66 2.33 9.32 2.66 10 3 C9.34 3.66 8.68 4.32 8 5 C5 5 5 5 3.4375 3.625 C2.963125 3.08875 2.48875 2.5525 2 2 C1.34 1.34 0.68 0.68 0 0 Z " transform="translate(153 66)" class="color0C0744 svgShape"></path><path fill="#edff66" d="M0 0 C0.66 0.33 1.32 0.66 2 1 C2 1.66 2 2.32 2 3 C3.32 3.33 4.64 3.66 6 4 C-0.4 5.35384615 -0.4 5.35384615 -3.4375 3.5625 C-3.953125 3.046875 -4.46875 2.53125 -5 2 C-2.625 0.9375 -2.625 0.9375 0 0 Z " transform="translate(90 112)" class="colorEF777A svgShape"></path><path fill="#edff66" d="M0 0 C-8.56662354 4.31047865 -8.56662354 4.31047865 -14 4 C-9.57391359 -0.5688634 -5.97980322 -0.46900417 0 0 Z " transform="translate(145 104)" class="colorF06364 svgShape"></path><path fill="#edff66" d="M0 0 C0.99 0.99 1.98 1.98 3 3 C2 4 2 4 -0.72265625 4.09765625 C-2.37587891 4.08025391 -2.37587891 4.08025391 -4.0625 4.0625 C-5.16722656 4.05347656 -6.27195313 4.04445313 -7.41015625 4.03515625 C-8.69212891 4.01775391 -8.69212891 4.01775391 -10 4 C-9.67 3.34 -9.34 2.68 -9 2 C-6.03 2.33 -3.06 2.66 0 3 C0 2.01 0 1.02 0 0 Z " transform="translate(145 92)" class="color040138 svgShape"></path><path fill="#edff66" d="M0 0 C-2 2 -2 2 -4 3 C-4 2.34 -4 1.68 -4 1 C-6.64 1 -9.28 1 -12 1 C-12 0.67 -12 0.34 -12 0 C-3.42857143 -1.28571429 -3.42857143 -1.28571429 0 0 Z " transform="translate(148 107)" class="colorE81211 svgShape"></path></svg></g></svg>