<svg width="595" height="218" viewBox="0 0 595 218" fill="none" xmlns="http://www.w3.org/2000/svg">
<g filter="url(#filter0_d_285_80)">
<path d="M275.788 144.049C272.322 143.572 271.102 143.312 266.447 142.062C264.393 141.511 260.915 140.136 258.256 138.824C251.228 135.356 244.031 129.393 239.423 123.221C238.555 122.06 237.749 120.981 237.63 120.823C236.278 119.029 233.55 113.925 232.287 110.827C231.839 109.728 231.362 108.571 231.228 108.257C228.323 101.457 227.44 88.7295 229.286 80.2682C231.978 66.6366 238.767 56.4755 250.065 47.4085C250.698 46.9477 251.28 46.5056 251.359 46.4262C252.912 44.8653 261.199 40.5463 264.81 39.4164C268.027 38.4093 268.834 38.1871 270.327 37.8961C271.197 37.7268 272.619 37.4236 273.489 37.2226C275.643 36.7243 287.265 36.7294 290.158 37.2287C294.459 37.9727 295.529 38.2207 298.636 39.1937C301.991 40.2441 302.42 40.4136 306.252 42.2044C316.907 47.1822 326.955 57.6793 331.615 68.7003C332.884 71.7005 333.16 72.5064 333.965 75.5547C334.235 76.5757 334.569 77.7967 334.708 78.2679C334.932 79.0302 335.085 81.2794 335.017 82.8232C334.969 83.9133 334.428 82.8272 334.166 81.1141C333.83 78.9152 332.708 74.6342 332.376 74.2838C332.234 74.1346 332.119 73.8548 332.119 73.6621C332.119 72.7901 327.765 64.0786 326.773 62.9658C326.552 62.7178 326.371 62.4259 326.371 62.3171C326.371 62.1094 323.966 58.9852 322.491 57.2763C320.885 55.4156 317.053 51.7774 315.456 50.5983C314.583 49.9533 313.804 49.3495 313.725 49.2565C313.385 48.8565 308.609 46.0104 306.54 44.9746C303.833 43.6196 298.369 41.6925 295.044 40.92C294.016 40.6814 292.464 40.3218 291.595 40.1209C289.491 39.6348 278.921 39.6315 276.219 40.117C271.977 40.8778 267.802 41.9766 265.298 42.9915C262.888 43.9682 258.573 46.0083 256.676 47.0683C255.08 47.9595 253.255 49.0761 253.083 49.2658C253.004 49.3531 251.984 50.1924 250.816 51.131C247.858 53.5072 244.842 56.489 243.009 58.8479C242.155 59.9474 241.388 60.9113 241.306 60.9899C241.136 61.1521 240.978 61.4012 239.05 64.5638C237.405 67.2609 235.107 71.9819 234.186 74.5559C233.891 75.38 232.838 79.4169 232.063 82.6955C231.562 84.8149 231.56 95.8828 232.061 98.4035C232.631 101.273 233.303 104.199 233.537 104.83C233.654 105.144 233.972 106.108 234.244 106.972C234.76 108.608 234.885 108.939 235.7 110.827C240.056 120.923 248.174 129.794 257.97 135.164C264.051 138.497 266.002 139.187 275.141 141.242C277.188 141.703 288.346 141.73 290.59 141.281C295.338 140.33 296.667 140.026 297.125 139.789C297.399 139.646 297.849 139.53 298.124 139.53C298.931 139.53 303.544 137.759 306.254 136.408C308.793 135.143 311.641 133.372 313.343 132C313.633 131.767 314.84 130.809 316.025 129.872C323.42 124.027 330.393 113.501 332.899 104.401C333.136 103.537 333.457 102.381 333.612 101.831C334.001 100.442 334.353 98.3938 334.685 95.5749C335.102 92.0366 335.674 91.8049 335.458 95.262C335.095 101.074 333.8 106.929 331.921 111.256C331.009 113.354 328.944 117.444 328.243 118.538C327.841 119.167 327.434 119.906 327.34 120.181C327.245 120.456 327.053 120.68 326.913 120.68C326.773 120.68 326.659 120.818 326.659 120.985C326.659 122.819 312.879 136.103 310.977 136.103C306.573 139.039 301.586 141.098 296.482 142.577C290.542 144.146 281.28 144.804 275.789 144.049L275.788 144.049ZM277.8 137.804C277.405 137.673 275.917 137.233 274.495 136.825C270.616 135.713 268.316 134.984 266.735 134.365C266.419 134.241 265.869 134.059 265.513 133.96C264.429 133.658 264.764 133.173 265.944 133.337C268.716 133.721 275.398 135.73 278.562 137.13C279.06 137.351 279.609 137.531 279.783 137.531C279.957 137.531 280.099 137.66 280.099 137.817C280.099 138.151 278.829 138.144 277.8 137.804ZM298.788 133.829C298.434 133.607 298.458 133.534 298.932 133.381C299.244 133.281 299.951 133.027 300.504 132.816C301.058 132.606 302.48 132.079 303.666 131.646C304.851 131.213 305.944 130.754 306.094 130.625C306.245 130.496 306.532 130.391 306.733 130.391C307.291 130.391 312.478 127.795 314.933 126.287C315.647 125.849 315.984 126.364 315.305 126.856C314.989 127.085 314.439 127.524 314.082 127.832C313.725 128.14 313.361 128.392 313.273 128.392C313.184 128.392 312.7 128.698 312.197 129.072C311.104 129.885 306.346 132.181 304.528 132.772C300.569 134.06 299.476 134.261 298.788 133.829ZM277.225 132.961C276.988 132.809 276.567 132.683 276.289 132.68C276.012 132.679 275.149 132.371 274.372 131.998C273.595 131.626 272.607 131.233 272.176 131.126C271.601 130.982 271.478 130.846 271.714 130.612C272.306 130.024 279.524 132.249 279.524 133.019C279.524 133.34 277.745 133.295 277.225 132.961ZM287.571 127.593C286.542 127.25 286.402 125.782 287.336 125.132C288.252 124.494 288.957 125.089 288.231 125.886C287.754 126.41 287.754 126.454 288.225 126.716C289.105 127.205 288.57 127.925 287.572 127.593H287.571ZM289.67 123.602C289.322 123.33 288.892 122.723 288.714 122.251C287.761 119.725 290.942 117.203 292.716 119.08C293.447 119.852 293.119 120.309 292.284 119.681C291.527 119.111 290.947 119.155 290.212 119.835C288.786 121.155 289.918 123.152 291.904 122.819C293.182 122.604 293.393 122.968 292.393 123.663C291.56 124.243 290.459 124.218 289.67 123.602ZM283.181 122.105C281.838 120.547 283.798 118.03 285.606 118.992C286.364 119.395 286.308 120.203 285.539 119.96C284.521 119.639 283.498 120.047 283.601 120.733C283.733 121.617 284.556 122.048 285.267 121.607C285.967 121.172 286.134 121.163 286.134 121.558C286.134 122.669 284.006 123.063 283.181 122.105ZM247.913 121.447C246.505 121.002 244.671 119.081 244.219 117.581C244.014 116.897 243.791 116.19 243.725 116.01C243.156 114.461 246.913 115.829 248.435 117.725C249.105 118.559 249.907 120.583 249.917 121.466C249.924 121.889 249.289 121.883 247.913 121.447ZM258.773 119.403C251.862 117.512 253.251 106.984 260.412 106.984C263.14 106.984 265.559 108.769 265.776 110.942C265.893 112.121 265.378 112.4 264.922 111.405C263.384 108.052 257.825 109.382 257.825 113.103C257.825 116.455 261.888 117.799 264.325 115.254C265.759 113.756 266.124 113.773 265.863 115.326C265.47 117.66 262.085 120.34 260.213 119.798C260.164 119.784 259.516 119.606 258.773 119.403ZM309.122 117.781C301.624 112.15 308.819 92.5104 318.454 92.3063C322.857 92.2131 325.203 97.444 323.285 103.078C322.444 105.547 322.261 105.28 322.185 101.467C321.98 91.2607 313.243 95.3243 310.04 107.115C307.413 116.788 313.528 119.216 319.353 110.812C321.123 108.258 321.473 109.252 319.893 112.343C317.182 117.646 312.254 120.134 309.122 117.781ZM239.087 106.308C237.206 103.524 235.962 100.352 234.727 95.1867C233.646 90.6648 234.766 82.2393 237.047 77.7415C237.915 76.0278 237.98 76.5073 238.023 84.9273C238.06 92.2528 238.246 95.0185 239.058 100.26C239.228 101.36 239.47 103.031 239.596 103.973C239.722 104.916 239.909 105.961 240.012 106.297C240.316 107.283 239.751 107.29 239.087 106.308ZM301.079 105.703C301.079 105.163 301.209 104.641 301.367 104.544C301.525 104.447 301.654 104.13 301.654 103.84C301.654 103.267 303.092 100.32 303.448 100.165C303.568 100.113 303.666 99.9466 303.666 99.796C303.666 99.4357 305.472 97.0013 305.75 96.987C306.153 96.9661 305.966 97.5753 305.247 98.6281C304.851 99.206 303.253 102.495 302.804 103.436C302.171 104.746 301.654 106.013 301.654 106.252C301.654 106.491 301.525 106.686 301.367 106.686C301.209 106.686 301.079 106.244 301.079 105.703ZM284.712 103.56C284.391 103.358 284.49 103.257 285.143 103.119C286.643 102.801 286.822 102.746 288.791 102.013C289.857 101.616 291.45 100.899 292.33 100.419C296.895 98.0094 288.579 104.541 284.712 103.56ZM281.249 99.1931C272.103 95.1905 274.081 82.2765 283.835 82.3051C288.05 82.3175 292.903 86.6925 291.661 89.3602C291.383 89.9562 291.365 89.9479 291.15 89.1314C290.914 88.2364 290.778 88.0319 289.501 86.6578C285.351 82.1929 277.497 86.4643 279.005 92.3661C280.483 98.1536 288.961 97.919 291.114 92.0311C291.37 91.3301 291.882 91.6982 291.882 92.5836C291.882 96.8075 285.236 100.938 281.249 99.1931ZM255.571 97.596C254.631 96.5645 255.733 94.4963 257.084 94.7549C257.77 94.8859 257.796 95.737 257.121 95.9126C256.298 96.1264 256.386 96.9348 257.268 97.268C257.672 97.4209 257.923 97.6748 257.826 97.8321C257.531 98.3063 256.079 98.1542 255.571 97.596ZM331.455 93.3132C331.27 88.6482 331.101 87.3603 330.044 82.5531C329.733 81.1393 329.489 79.5455 329.33 79.0518C328.91 77.7489 328.964 78.06 328.67 76.9501C328.365 75.8007 328.859 76.2873 329.245 76.9667C330.433 79.0564 331.094 81.5443 331.547 83.9098C331.684 84.6555 331.859 85.3668 331.936 85.4905C332.013 85.6141 332.22 87.5053 332.396 89.6931C332.709 93.5918 332.649 94.417 331.842 97.2624C331.728 97.6632 331.559 95.9316 331.455 93.3141V93.3132ZM252.796 93.3276C252.17 93.1402 251.646 92.391 251.646 91.6831C251.646 90.4967 253.356 89.6509 254.153 90.443C254.676 90.9628 254.277 91.4798 253.471 91.3267C252.873 91.213 252.758 91.286 252.842 91.7261C252.899 92.0242 253.233 92.3053 253.589 92.3558C253.943 92.4061 254.233 92.616 254.233 92.8223C254.233 93.2457 253.446 93.5224 252.796 93.3276ZM257.199 92.239C254.352 90.8228 255.111 86.6954 258.218 86.6954C259.23 86.6954 259.694 86.8442 260.081 87.2937C260.632 87.933 260.489 88.4571 259.919 87.8901C259.359 87.3338 257.585 87.4788 257.027 88.1267C255.586 89.7989 257.757 92.2947 259.737 91.2418C260.565 90.8012 260.767 91.1701 260.056 91.8277C259.195 92.625 258.249 92.7612 257.199 92.239ZM325.13 87.0809C324.808 86.7613 324.906 82.7477 325.24 82.5424C325.751 82.2285 325.85 82.5691 325.863 84.6929C325.876 86.5963 325.587 87.5351 325.13 87.0809ZM335.158 84.8971C335.029 84.4578 335.004 84.0187 335.102 83.9213C335.423 83.6016 335.447 84.0521 335.501 84.8842C335.596 86.3515 335.158 87.9671 335.158 84.8971ZM256.067 78.697C251.963 76.7839 250.724 70.3688 253.572 65.7808C253.935 65.1949 254.233 64.6394 254.233 64.5464C254.233 64.0338 257.013 61.5825 258.428 60.8476C265.102 57.3815 271.428 63.7186 268.067 70.5025C267.2 72.2517 267.142 72.1622 267.053 68.945C266.794 59.6447 256.255 62.2373 255.73 71.7302C255.464 76.539 260.189 79.0626 263.43 75.8426C264.427 74.851 265.729 74.2625 265.729 74.8027C265.729 77.5263 259.2 80.1577 256.067 78.697ZM311.426 78.4868C309.581 77.7744 310.114 74.9858 312.095 74.9858C313.001 74.9858 313.148 75.7019 312.288 75.9253C311.272 76.1894 311.5 77.6521 312.534 77.5013C313.212 77.4025 313.331 77.4711 313.219 77.8973C313.144 78.1809 312.98 78.413 312.853 78.413C312.726 78.413 312.45 78.4671 312.24 78.5331C312.029 78.5992 311.663 78.5784 311.426 78.4868ZM268.028 78.041C268.028 77.9364 268.389 77.1098 268.829 76.2041C270.242 73.3013 271.181 69.5227 271.21 66.6279C271.234 64.1928 271.575 62.9553 271.893 64.1533C272.163 65.17 271.924 71.1961 271.566 72.4154C270.959 74.4808 268.028 79.1409 268.028 78.041ZM322.52 72.6219C320.746 69.1428 319.511 66.949 319.015 66.3953C318.793 66.1473 318.611 65.8596 318.611 65.7559C318.611 65.6522 318.423 65.3411 318.193 65.0644C317.964 64.7877 316.998 63.5332 316.047 62.2765C313.5 58.9095 312.959 58.2716 310.276 55.4766C306.871 51.9291 306.952 51.6188 310.801 53.4584C315.589 55.7471 322.347 62.5493 322.347 65.0805C322.347 65.282 322.45 65.5688 322.575 65.718C322.797 65.9813 323.415 67.9048 324.049 70.3065C324.419 71.7106 324.461 74.8895 324.111 75.1041C323.975 75.1878 323.259 74.0707 322.52 72.6219ZM265.729 73.9862C265.729 73.9076 265.794 73.8433 265.873 73.8433C265.952 73.8433 266.016 73.9076 266.016 73.9862C266.016 74.0647 265.952 74.129 265.873 74.129C265.794 74.129 265.729 74.0647 265.729 73.9862ZM295.398 72.737C292.896 71.1371 289.893 67.7208 289.466 65.9893C289.268 65.1839 289.33 65.2168 290.497 66.5393C292.255 68.5308 295.308 71.4598 296.407 72.2085C298.309 73.5045 297.369 73.9969 295.398 72.737ZM296.856 68.1838C292.336 66.3587 291.058 60.2752 294.507 57.0003C298.31 53.3883 305.103 55.5237 305.103 60.3313C305.103 60.951 304.973 60.8832 303.699 59.5972C300.654 56.5223 296.193 57.6346 296.193 61.469C296.193 65.8946 300.874 66.9779 304.169 63.3148C305.215 62.1518 305.422 62.5415 304.772 64.4473C303.632 67.7864 300.054 69.4752 296.856 68.1838ZM244.748 63.8473C244.907 63.8473 245.036 63.6368 245.036 63.3794C245.036 59.2249 261.141 46.6072 263.478 48.9302C263.733 49.1836 263.682 49.3059 263.262 49.4428C258.478 51.0036 252.482 55.0043 249.271 58.7778C248.602 59.565 247.924 60.3531 247.766 60.5289C247.113 61.255 245.987 62.8814 245.814 63.3476C245.712 63.6225 245.495 63.8473 245.332 63.8473H244.748ZM282.212 60.6869C281.408 60.3914 280.385 59.0554 280.393 58.311C280.411 56.5098 283.137 55.1822 284.268 56.4235C284.825 57.0355 284.632 57.6136 284.06 57.0453C282.922 55.9139 280.825 57.5139 281.703 58.8446C282.206 59.6077 283.455 59.8266 284.033 59.2529C284.574 58.715 284.805 59.5429 284.276 60.1241C283.678 60.7803 282.982 60.9701 282.212 60.6869ZM276.889 53.1446C276.149 51.5315 278.075 49.5244 279.073 50.8689C279.451 51.378 279.421 51.4357 278.717 51.5687C277.748 51.7521 277.5 52.6845 278.361 52.9084C279.181 53.1215 278.949 53.6864 277.996 53.7987C277.403 53.8683 277.153 53.7205 276.889 53.1446ZM283.121 52.6208C280.663 51.156 280.418 48.1366 282.617 46.418C283.692 45.578 286.112 45.6325 286.946 46.5155C287.983 47.6118 287.689 48.2913 286.549 47.4344C285.325 46.5149 282.111 47.8346 282.111 49.2564C282.111 49.7878 282.999 51.5665 283.264 51.5665C283.42 51.5665 283.548 51.7594 283.548 51.9949C283.548 52.3043 283.867 52.4233 284.697 52.4233C285.33 52.4233 285.847 52.5519 285.847 52.7089C285.847 53.1029 283.82 53.0374 283.121 52.6208ZM264.867 51.7174C266.384 50.8477 267.101 50.6612 269.537 50.5029C271.29 50.3888 272.052 50.4358 272.052 50.6573C272.052 51.2469 270.988 51.5468 267.849 51.8426C263.945 52.2105 264.002 52.213 264.867 51.7174ZM300.648 48.5966C299.542 48.0613 298.119 47.4094 297.487 47.148C296.854 46.8866 296.078 46.5636 295.762 46.4303C295.446 46.2969 294.929 46.1213 294.613 46.04C292.003 45.3687 290.938 44.6014 292.888 44.7979C299.965 45.5109 309.568 52.912 300.648 48.5966Z" fill="white"/>
<path fill-rule="evenodd" clip-rule="evenodd" d="M164.981 36.7324H135.01V168.077H164.686V104.727H189.27V73.9521L164.978 73.8205L164.981 36.7324ZM192.147 104.727H192.074V73.9673L192.077 73.9673V36.8056L222.118 36.806V51.5971V57.2631L218.818 55.6923C219.46 53.5583 219.032 48.1523 213.535 47.1565C208.039 46.1607 206.326 49.7883 206.326 49.7883C206.326 49.7883 201.187 47.8678 197.903 47.6544C194.62 47.441 196.968 49.4967 196.968 49.4967L204.399 53.7717C204.399 53.7717 202.614 59.3911 208.396 61.8096C214.178 64.2281 218.086 59.6515 218.086 59.6515L222.118 60.5974V145.72H212.817C211.34 144.911 212.743 143.954 212.743 143.954C223.964 135.05 212.079 122.835 212.079 122.835C207.502 125.337 192.147 142.703 192.147 142.703V104.727ZM200.419 131.255L196.282 130.277C196.049 129.113 196.254 126.91 198.946 127.413L200.419 131.255Z" fill="white"/>
<path d="M504.221 152.844C504.221 153.732 504.05 154.57 503.71 155.359C503.369 156.137 502.904 156.821 502.313 157.41C501.732 157.989 501.051 158.448 500.27 158.787C499.489 159.126 498.653 159.296 497.761 159.296H495.598C495.298 159.296 495.017 159.351 494.757 159.461C494.496 159.57 494.266 159.725 494.066 159.925C493.876 160.114 493.725 160.339 493.615 160.598C493.505 160.858 493.45 161.137 493.45 161.437V163.577H503.635V167.874H489.139V161.437C489.139 160.548 489.309 159.715 489.649 158.937C489.99 158.148 490.451 157.465 491.031 156.886C491.622 156.297 492.308 155.838 493.089 155.509C493.871 155.169 494.707 155 495.598 155H497.761C498.062 155 498.342 154.945 498.602 154.835C498.863 154.725 499.088 154.575 499.278 154.386C499.479 154.186 499.634 153.957 499.744 153.697C499.854 153.428 499.909 153.143 499.909 152.844C499.909 152.544 499.854 152.265 499.744 152.006C499.634 151.746 499.479 151.522 499.278 151.332C499.088 151.132 498.863 150.978 498.602 150.868C498.342 150.758 498.062 150.703 497.761 150.703H490.07V146.407H497.761C498.653 146.407 499.489 146.576 500.27 146.916C501.051 147.255 501.732 147.719 502.313 148.308C502.904 148.887 503.369 149.565 503.71 150.344C504.05 151.122 504.221 151.956 504.221 152.844Z" fill="white"/>
<path d="M519.783 157.14C519.783 154.755 519.383 152.984 518.582 151.826C517.791 150.668 516.684 150.089 515.262 150.089C513.85 150.089 512.753 150.663 511.972 151.811C511.191 152.959 510.8 154.735 510.8 157.14C510.8 159.525 511.191 161.297 511.972 162.455C512.753 163.612 513.85 164.191 515.262 164.191C515.973 164.191 516.609 164.051 517.17 163.772C517.73 163.482 518.201 163.048 518.582 162.469C518.972 161.891 519.268 161.162 519.468 160.284C519.678 159.396 519.783 158.348 519.783 157.14ZM523.884 157.14C523.884 159.176 523.659 160.898 523.208 162.305C522.758 163.712 522.142 164.85 521.361 165.718C520.58 166.586 519.663 167.215 518.612 167.604C517.57 167.983 516.454 168.173 515.262 168.173C514.07 168.173 512.948 167.978 511.897 167.589C510.855 167.19 509.944 166.556 509.163 165.688C508.392 164.81 507.781 163.672 507.33 162.275C506.88 160.868 506.654 159.156 506.654 157.14C506.654 155.104 506.88 153.388 507.33 151.991C507.781 150.583 508.392 149.446 509.163 148.577C509.944 147.709 510.855 147.08 511.897 146.691C512.948 146.302 514.07 146.107 515.262 146.107C516.454 146.107 517.57 146.307 518.612 146.706C519.663 147.095 520.58 147.729 521.361 148.607C522.142 149.486 522.758 150.623 523.208 152.021C523.659 153.418 523.884 155.124 523.884 157.14Z" fill="white"/>
<path d="M541.565 152.844C541.565 153.732 541.395 154.57 541.054 155.359C540.714 156.137 540.248 156.821 539.657 157.41C539.077 157.989 538.396 158.448 537.614 158.787C536.833 159.126 535.997 159.296 535.106 159.296H532.943C532.642 159.296 532.362 159.351 532.101 159.461C531.841 159.57 531.611 159.725 531.41 159.925C531.22 160.114 531.07 160.339 530.96 160.598C530.85 160.858 530.794 161.137 530.794 161.437V163.577H540.979V167.874H526.483V161.437C526.483 160.548 526.653 159.715 526.994 158.937C527.334 158.148 527.795 157.465 528.376 156.886C528.967 156.297 529.653 155.838 530.434 155.509C531.215 155.169 532.051 155 532.943 155H535.106C535.406 155 535.687 154.945 535.947 154.835C536.207 154.725 536.433 154.575 536.623 154.386C536.823 154.186 536.979 153.957 537.089 153.697C537.199 153.428 537.254 153.143 537.254 152.844C537.254 152.544 537.199 152.265 537.089 152.006C536.979 151.746 536.823 151.522 536.623 151.332C536.433 151.132 536.207 150.978 535.947 150.868C535.687 150.758 535.406 150.703 535.106 150.703H527.415V146.407H535.106C535.997 146.407 536.833 146.576 537.614 146.916C538.396 147.255 539.077 147.719 539.657 148.308C540.248 148.887 540.714 149.565 541.054 150.344C541.395 151.122 541.565 151.956 541.565 152.844Z" fill="white"/>
<path d="M559.682 161.122C559.682 162.17 559.496 163.113 559.126 163.952C558.755 164.79 558.26 165.498 557.639 166.077C557.018 166.656 556.297 167.1 555.476 167.41C554.664 167.719 553.813 167.874 552.922 167.874H544.239V163.577H552.922C553.212 163.577 553.503 163.532 553.793 163.443C554.094 163.353 554.359 163.208 554.589 163.008C554.83 162.809 555.02 162.554 555.16 162.245C555.31 161.936 555.385 161.561 555.385 161.122C555.385 160.723 555.31 160.374 555.16 160.074C555.02 159.765 554.83 159.51 554.589 159.311C554.359 159.101 554.094 158.947 553.793 158.847C553.503 158.737 553.212 158.682 552.922 158.682H544.239L545.501 146.407H558.795V150.703H549.377L548.986 154.386H552.922C553.813 154.386 554.664 154.54 555.476 154.85C556.297 155.159 557.018 155.608 557.639 156.197C558.26 156.776 558.755 157.485 559.126 158.323C559.496 159.151 559.682 160.084 559.682 161.122Z" fill="white"/>
<path fill-rule="evenodd" clip-rule="evenodd" d="M103.659 131.01H73.6563L96.782 100.659H103.792V94.7666V85.4523L39.504 168.077H16V152.232L104.593 36.7266H128.004V144.177H122.119C122.2 140.833 120.821 139.71 120.821 139.71C124.936 137.267 123.526 132.543 123.526 132.543C123.755 131.945 123.395 131.12 123.214 131.071C123.034 131.023 122.674 131.492 122.674 131.492C122.674 131.492 122.083 131.039 121.592 131.459C121.1 131.88 122.778 132.962 122.778 132.962C123.195 136.554 120.622 137.584 119.648 137.355C118.674 137.126 118.477 135.924 118.477 135.924C122.559 132.268 118.248 127.771 118.248 127.771C117.559 125.862 119.92 124.535 119.92 124.535C120.231 124.649 121.903 124.535 121.067 123.597C120.231 122.659 119.648 123.985 119.648 123.985C118.116 124.592 117.452 125.555 117.28 126.088C117.116 126.622 117.116 127.561 117.116 127.561C116.231 127.302 115.363 127.722 115.363 127.722C115.838 125.296 112.92 122.918 112.92 122.918C113.018 122.465 111.872 122.044 111.805 123.209C111.74 124.374 112.789 123.953 112.789 123.953C115.248 125.765 114.1 128.062 114.1 128.062C108.855 132.268 113.445 135.73 113.445 135.73C109.04 138.465 108.321 143.172 108.216 144.177H103.659V131.01Z" fill="white"/>
<path opacity="0.83" d="M436.108 99.9606C436.108 101.433 437.302 102.627 438.775 102.627C440.248 102.627 441.442 101.433 441.442 99.9606C441.442 98.4879 440.248 97.294 438.775 97.294C437.302 97.294 436.108 98.4879 436.108 99.9606ZM432.433 96.6949L432.569 96.2137L432.569 96.2137L432.433 96.6949ZM417.204 100.38L416.812 100.069L416.812 100.069L417.204 100.38ZM425.544 117.657L425.68 117.176C425.673 117.174 425.667 117.173 425.661 117.171L425.544 117.657ZM440.405 109.559L440.905 109.562C440.905 109.53 440.902 109.498 440.896 109.467L440.405 109.559ZM422.019 104.285L421.52 104.252L422.019 104.285ZM435.384 112.558L434.99 112.25L434.99 112.25L435.384 112.558ZM425.474 106.09C425.474 107.563 426.668 108.756 428.141 108.756C429.614 108.756 430.808 107.563 430.808 106.09C430.808 104.617 429.614 103.423 428.141 103.423C426.668 103.423 425.474 104.617 425.474 106.09ZM438.775 99.9606C439.15 99.6305 439.15 99.6303 439.15 99.6301C439.15 99.6301 439.15 99.6298 439.15 99.6297C439.15 99.6294 439.149 99.6291 439.149 99.6287C439.148 99.628 439.147 99.6271 439.147 99.6262C439.145 99.6242 439.143 99.6218 439.14 99.619C439.135 99.6133 439.128 99.6058 439.119 99.5965C439.102 99.5779 439.077 99.5523 439.045 99.5203C438.981 99.4563 438.888 99.3669 438.762 99.2571C438.511 99.0376 438.132 98.7371 437.607 98.397C436.557 97.7163 434.926 96.879 432.569 96.2137L432.298 97.1761C434.557 97.8142 436.097 98.6098 437.063 99.2361C437.547 99.5495 437.888 99.821 438.104 100.01C438.213 100.105 438.29 100.179 438.338 100.227C438.362 100.252 438.379 100.269 438.39 100.28C438.395 100.286 438.398 100.289 438.4 100.291C438.4 100.292 438.401 100.292 438.401 100.292C438.401 100.292 438.401 100.292 438.4 100.292C438.4 100.292 438.4 100.292 438.4 100.291C438.4 100.291 438.4 100.291 438.4 100.291C438.4 100.291 438.399 100.291 438.775 99.9606ZM432.569 96.2137C427.903 94.8962 421.39 94.2981 416.812 100.069L417.595 100.691C421.778 95.4178 427.731 95.8869 432.298 97.1761L432.569 96.2137ZM416.812 100.069C414.465 103.028 414.603 107.087 416.293 110.585C417.985 114.089 421.277 117.141 425.426 118.143L425.661 117.171C421.842 116.248 418.774 113.422 417.193 110.15C415.61 106.871 415.563 103.253 417.595 100.691L416.812 100.069ZM425.408 118.139C428.536 119.02 432.362 119.765 435.44 118.838C437 118.368 438.375 117.466 439.356 115.944C440.331 114.432 440.889 112.35 440.905 109.562L439.905 109.556C439.889 112.221 439.356 114.099 438.515 115.403C437.681 116.698 436.516 117.469 435.151 117.881C432.377 118.716 428.804 118.057 425.68 117.176L425.408 118.139ZM440.896 109.467C439.818 103.663 435.121 100.583 430.694 99.8018C428.48 99.4115 426.286 99.5848 424.593 100.313C422.89 101.045 421.648 102.367 421.52 104.252L422.518 104.319C422.614 102.911 423.524 101.861 424.988 101.231C426.462 100.598 428.45 100.422 430.52 100.787C434.659 101.516 438.931 104.365 439.913 109.65L440.896 109.467ZM421.52 104.252C421.28 107.798 423.842 111.221 426.851 113.122C428.367 114.08 430.049 114.688 431.628 114.726C433.221 114.764 434.719 114.218 435.778 112.867L434.99 112.25C434.16 113.31 432.988 113.758 431.652 113.726C430.301 113.694 428.793 113.166 427.385 112.277C424.544 110.482 422.312 107.357 422.518 104.319L421.52 104.252ZM435.778 112.867C436.3 112.2 436.582 111.515 436.648 110.829C436.714 110.144 436.562 109.493 436.271 108.898C435.696 107.724 434.565 106.739 433.371 106.031C432.173 105.321 430.839 104.846 429.783 104.739C429.264 104.686 428.745 104.715 428.34 104.913C428.128 105.016 427.937 105.171 427.806 105.39C427.675 105.611 427.626 105.861 427.642 106.12L428.64 106.06C428.635 105.967 428.653 105.923 428.666 105.902C428.679 105.88 428.707 105.847 428.778 105.812C428.937 105.734 429.235 105.688 429.682 105.734C430.559 105.822 431.755 106.236 432.861 106.892C433.971 107.549 434.918 108.408 435.373 109.338C435.597 109.795 435.698 110.262 435.653 110.733C435.607 111.202 435.413 111.711 434.99 112.25L435.778 112.867Z" fill="white"/>
<path d="M476.916 12.4766C476.953 11.0724 478.126 9.96399 479.535 10.0009C483.058 10.0932 486.495 10.4561 489.824 11.1174C491.206 11.392 492.104 12.7313 491.828 14.1089C491.553 15.4865 490.209 16.3806 488.826 16.1061C485.806 15.5062 482.66 15.1713 479.401 15.0859C477.992 15.049 476.879 13.8808 476.916 12.4766Z" fill="white"/>
<path d="M472.145 12.6964C472.296 14.093 471.282 15.347 469.881 15.4974C466.78 15.8299 463.602 16.3501 460.356 17.0453C458.978 17.3404 457.621 16.4664 457.325 15.093C457.029 13.7197 457.906 12.3672 459.284 12.072C462.686 11.3433 466.041 10.793 469.335 10.4398C470.736 10.2894 471.995 11.2998 472.145 12.6964Z" fill="white"/>
<path d="M496.42 15.4949C496.971 14.202 498.47 13.5991 499.767 14.1483C502.955 15.4978 505.996 17.1921 508.87 19.2555C510.014 20.0766 510.273 21.6662 509.449 22.8059C508.625 23.9456 507.03 24.2038 505.886 23.3826C503.326 21.5443 500.617 20.0347 497.771 18.8302C496.474 18.281 495.869 16.7878 496.42 15.4949Z" fill="white"/>
<path d="M452.672 16.3067C453.08 17.6512 452.318 19.0709 450.969 19.4778C447.941 20.3908 444.871 21.4344 441.765 22.5983C440.446 23.0927 438.974 22.4276 438.478 21.1129C437.981 19.7981 438.649 18.3314 439.968 17.837C443.17 16.6371 446.347 15.557 449.49 14.6091C450.839 14.2022 452.264 14.9623 452.672 16.3067Z" fill="white"/>
<path d="M434.031 22.9261C434.598 24.2123 434.011 25.7127 432.72 26.2774C429.781 27.5635 426.819 28.9437 423.842 30.4095C422.578 31.0316 421.047 30.5151 420.423 29.2557C419.799 27.9963 420.317 26.471 421.581 25.8488C424.622 24.3516 427.654 22.9386 430.668 21.6197C431.959 21.055 433.465 21.6399 434.031 22.9261Z" fill="white"/>
<path d="M513.009 26.0068C514.054 25.064 515.668 25.1438 516.614 26.1851C517.763 27.4497 518.871 28.7926 519.937 30.2155L521.464 32.2534L517.374 35.2968L515.847 33.2589C514.875 31.9608 513.868 30.7419 512.83 29.5993C511.884 28.5581 511.964 26.9497 513.009 26.0068Z" fill="white"/>
<path d="M416.153 31.4662C416.609 32.3047 416.544 33.2859 416.067 34.0392H406.242C408.393 32.8056 410.544 31.6062 412.692 30.4441C413.931 29.774 415.48 30.2316 416.153 31.4662Z" fill="white"/>
<path d="M382.387 52.1098C383.193 53.2619 382.91 54.8473 381.754 55.6509C379.065 57.5198 376.389 59.4234 373.733 61.355C372.594 62.183 370.998 61.9343 370.167 60.7995C369.336 59.6648 369.585 58.0737 370.724 57.2458C373.409 55.2937 376.114 53.369 378.834 51.4785C379.99 50.675 381.581 50.9576 382.387 52.1098Z" fill="white"/>
<path d="M366.314 63.661C367.167 64.7792 366.949 66.3748 365.827 67.225C364.359 68.3372 362.898 69.4559 361.446 70.5802V64.1568C361.876 63.8292 362.306 63.5022 362.737 63.1757C363.859 62.3255 365.461 62.5428 366.314 63.661Z" fill="white"/>
<path d="M340.27 86.1634V81.1368C339.999 81.3645 339.729 81.5922 339.459 81.8199C338.383 82.7276 338.25 84.3325 339.161 85.4045C339.467 85.7649 339.852 86.0191 340.27 86.1634Z" fill="white"/>
<path d="M268.324 143.342C270.286 143.905 272.532 144.446 274.466 144.677C274.298 145.164 273.98 145.604 273.526 145.924C272.52 146.632 271.518 147.328 270.521 148.011H261.425C261.551 147.884 261.693 147.768 261.85 147.667C263.987 146.285 266.145 144.844 268.324 143.342Z" fill="white"/>
<path d="M233.9 168.633H223.057C222.913 169.142 222.927 169.7 223.132 170.232C223.637 171.543 225.113 172.198 226.429 171.695C228.886 170.755 231.377 169.736 233.9 168.633Z" fill="white"/>
<path d="M114.714 143.518L116.177 145.603C117.104 146.924 118.136 148.263 119.273 149.606C120.181 150.68 120.044 152.285 118.967 153.19C117.889 154.096 116.279 153.959 115.37 152.885C114.138 151.429 113.012 149.968 111.994 148.518L110.531 146.434L114.714 143.518Z" fill="white"/>
<path d="M122.883 157.115C123.805 156.053 125.417 155.937 126.483 156.856C128.823 158.875 131.405 160.832 134.228 162.675V167.522C133.501 167.788 132.663 167.724 131.962 167.274C128.74 165.207 125.799 162.994 123.142 160.702C122.076 159.783 121.96 158.177 122.883 157.115Z" fill="white"/>
<path d="M140.409 169.046C140.386 169.089 140.363 169.134 140.342 169.18C139.744 170.452 140.294 171.966 141.57 172.562C144.772 174.056 148.177 175.398 151.78 176.546C153.123 176.973 154.559 176.235 154.988 174.897C155.417 173.559 154.677 172.128 153.334 171.7C150.846 170.908 148.461 170.018 146.18 169.046H140.409Z" fill="white"/>
<path d="M217.89 172.039C218.302 173.382 217.544 174.805 216.196 175.216C212.621 176.307 209.122 177.226 205.703 177.986C204.327 178.291 202.963 177.427 202.657 176.056C202.35 174.685 203.217 173.326 204.593 173.021C207.88 172.291 211.25 171.405 214.702 170.352C216.05 169.941 217.477 170.696 217.89 172.039Z" fill="white"/>
<path d="M160.365 176.248C160.627 174.868 161.962 173.96 163.347 174.22C166.622 174.837 170.044 175.285 173.61 175.539C175.016 175.639 176.074 176.856 175.974 178.257C175.873 179.658 174.652 180.713 173.246 180.613C169.485 180.345 165.868 179.871 162.4 179.219C161.015 178.958 160.104 177.628 160.365 176.248Z" fill="white"/>
<path d="M197.212 177.028C197.398 178.42 196.416 179.699 195.019 179.884C191.297 180.377 187.68 180.677 184.17 180.8C182.762 180.85 181.579 179.752 181.53 178.348C181.48 176.945 182.581 175.766 183.99 175.717C187.332 175.599 190.785 175.314 194.346 174.842C195.743 174.657 197.027 175.635 197.212 177.028Z" fill="white"/>
<path fill-rule="evenodd" clip-rule="evenodd" d="M409.943 51.4216H418.248C418.248 51.4216 429.124 52.8652 429.533 59.3955C430.292 71.4939 418.248 73.6248 418.248 73.6248H413.462V91.7036H431.372C431.372 91.7036 447.951 90.9475 447.951 109.164C447.951 122.156 431.234 123.049 431.234 123.049H414.082L414.202 141.612H431.378C431.378 141.612 467.196 141.977 467.196 110.057C467.196 81.53 443.329 78.0242 443.329 78.0242C443.329 78.0242 450.917 73.6248 450.503 57.2646C450.503 39.4292 431.378 35.2676 431.378 35.2676L385.593 35.2676L385.585 40.6472C387.434 41.0015 391.304 41.6812 395.173 41.9766C395.173 41.9766 396.326 41.4863 396.862 41.4451C396.862 41.4451 398.221 41.1999 398.468 41.3628C398.468 41.3628 399.395 40.5457 399.982 40.7399C400.245 40.4786 400.198 39.7725 400.198 39.7725L400.981 39.568C400.981 39.568 401.146 38.2189 400.775 37.5648C400.775 37.5648 405.347 36.052 407.572 39.1592C407.572 39.1592 412.803 38.4642 416.222 43.452C412.803 48.4398 407.572 47.7448 407.572 47.7448C405.347 50.852 400.775 49.3391 400.775 49.3391C401.146 48.685 400.981 47.3359 400.981 47.3359L400.198 47.1315C400.198 47.1315 400.245 46.4253 399.982 46.1641C399.395 46.3582 398.468 45.5411 398.468 45.5411C398.221 45.7041 396.862 45.4588 396.862 45.4588C396.326 45.4177 395.173 44.9273 395.173 44.9273C391.297 45.2233 387.422 45.9046 385.576 46.2584L385.568 51.4216H390.905V111.637C388.835 121.331 380.627 126.143 375.616 126.143C370.604 126.143 363.727 123.462 360.347 112.065L360.347 58.0207H341.102L341.102 111.637C343.028 132.439 355.986 144.978 375.616 144.978C395.245 144.978 408.017 132.439 409.943 111.637V107.341H409.875V59.2433L409.943 59.2433V51.4216Z" fill="white"/>
<path fill-rule="evenodd" clip-rule="evenodd" d="M567.155 137.335L530.268 37.1504H503.228L466.341 137.335L461.784 148.723H192.363V168.145H477.418C477.418 168.145 488.425 137.824 488.707 137.335C488.723 137.308 488.748 137.259 488.783 137.194C489.349 136.106 492.43 130.193 498.805 131.603L503.479 117.481H509.154V115.238H506.984L506.149 111.998C506.149 111.998 502.811 111.417 500.808 112.414C500.808 112.414 495.55 100.867 503.813 94.3871C503.813 94.3871 503.228 78.5203 516.748 69.8808C530.268 78.5203 529.684 94.3871 529.684 94.3871C537.946 100.867 532.688 112.414 532.688 112.414C530.685 111.417 527.347 111.998 527.347 111.998L526.512 115.238H524.342V117.481H530.017L534.691 131.603C541.451 130.108 544.789 137.335 544.789 137.335H567.155ZM196.815 152.208H207.97V154.224H203.414V165.858H201.371V154.224H196.815V152.208ZM209.704 152.208H211.736V157.747H218.836V152.208H220.859V165.858H218.836V159.762H211.736V165.858H209.704V152.208ZM234.181 152.208H223.556V165.858H234.181V163.833H225.588V154.224H234.181V152.208ZM234.181 157.747H226.744V159.762H234.181V157.747ZM242.475 152.208H249.69C250.326 152.208 250.901 152.358 251.414 152.659C251.928 152.96 252.336 153.363 252.638 153.868C252.946 154.374 253.1 154.94 253.1 155.568V156.46C253.1 157.35 252.843 158.025 252.329 158.486C252.785 158.78 253.116 159.132 253.322 159.542C253.527 159.945 253.63 160.45 253.63 161.058V162.566C253.63 163.167 253.476 163.717 253.167 164.217C252.866 164.716 252.458 165.116 251.944 165.417C251.43 165.711 250.862 165.858 250.239 165.858H242.475V152.208ZM250.258 163.833C250.631 163.833 250.949 163.708 251.212 163.458C251.475 163.202 251.607 162.895 251.607 162.537V161.03C251.607 160.671 251.475 160.364 251.212 160.108C250.949 159.852 250.628 159.724 250.249 159.724H245.663V157.708H249.69C250.069 157.708 250.393 157.587 250.663 157.343C250.939 157.094 251.077 156.793 251.077 156.441V155.568C251.077 155.196 250.939 154.88 250.663 154.617C250.393 154.355 250.069 154.224 249.69 154.224H244.508V163.833H250.258ZM266.663 152.208H256.038V165.858H266.663V163.833H258.071V154.224H266.663V152.208ZM266.663 157.747H259.227V159.762H266.663V157.747ZM268.985 156.047C268.985 155.337 269.168 154.694 269.534 154.118C269.906 153.536 270.401 153.072 271.017 152.726C271.634 152.38 272.318 152.208 273.069 152.208H279.552V154.224H273.069C272.504 154.224 272.019 154.403 271.614 154.761C271.216 155.113 271.017 155.539 271.017 156.038V162.028C271.017 162.527 271.216 162.956 271.614 163.314C272.019 163.666 272.504 163.842 273.069 163.842H276.277C276.848 163.842 277.333 163.666 277.731 163.314C278.13 162.956 278.329 162.527 278.329 162.028V160.242H274.61V158.227H280.361V162.018C280.361 162.722 280.178 163.366 279.812 163.948C279.446 164.53 278.952 164.994 278.329 165.34C277.712 165.685 277.028 165.858 276.277 165.858H273.069C272.318 165.858 271.634 165.685 271.017 165.34C270.401 164.994 269.906 164.53 269.534 163.948C269.168 163.366 268.985 162.722 268.985 162.018V156.047ZM284.908 152.208H282.875V165.858H284.908V152.208ZM287.615 152.208H290.254L296.217 162.93V152.208H298.249V165.858H295.61L289.647 155.28V165.858H287.615V152.208ZM303.586 152.208H300.947V165.858H302.979V155.28L308.942 165.858H311.581V152.208H309.549V162.93L303.586 152.208ZM314.279 152.208H316.311V165.858H314.279V152.208ZM321.657 152.208H319.018V165.858H321.051V155.28L327.013 165.858H329.653V152.208H327.62V162.93L321.657 152.208ZM332.157 156.047C332.157 155.337 332.34 154.694 332.706 154.118C333.079 153.536 333.573 153.072 334.19 152.726C334.806 152.38 335.49 152.208 336.242 152.208H342.725V154.224H336.242C335.676 154.224 335.192 154.403 334.787 154.761C334.389 155.113 334.19 155.539 334.19 156.038V162.028C334.19 162.527 334.389 162.956 334.787 163.314C335.192 163.666 335.676 163.842 336.242 163.842H339.449C340.021 163.842 340.506 163.666 340.904 163.314C341.302 162.956 341.501 162.527 341.501 162.028V160.242H337.783V158.227H343.534V162.018C343.534 162.722 343.351 163.366 342.985 163.948C342.619 164.53 342.124 164.994 341.501 165.34C340.885 165.685 340.201 165.858 339.449 165.858H336.242C335.49 165.858 334.806 165.685 334.19 165.34C333.573 164.994 333.079 164.53 332.706 163.948C332.34 163.366 332.157 162.722 332.157 162.018V156.047ZM353.289 157.452H358.188V158.823H353.289V157.452ZM364.721 161.517C364.721 161.237 364.82 160.998 365.018 160.801C365.216 160.604 365.455 160.505 365.737 160.505C366.023 160.505 366.263 160.604 366.455 160.801C366.653 160.993 366.752 161.232 366.752 161.517C366.752 161.803 366.653 162.044 366.455 162.241C366.263 162.433 366.023 162.53 365.737 162.53C365.455 162.53 365.216 162.431 365.018 162.234C364.82 162.036 364.721 161.798 364.721 161.517ZM378.177 157.452H373.277V158.823H378.177V157.452ZM380.021 161.517C380.021 161.237 380.12 160.998 380.318 160.801C380.516 160.604 380.755 160.505 381.037 160.505C381.323 160.505 381.563 160.604 381.755 160.801C381.953 160.993 382.052 161.232 382.052 161.517C382.052 161.803 381.953 162.044 381.755 162.241C381.563 162.433 381.323 162.53 381.037 162.53C380.755 162.53 380.516 162.431 380.318 162.234C380.12 162.036 380.021 161.798 380.021 161.517ZM388.788 157.452H383.889V158.823H388.788V157.452ZM390.632 161.517C390.632 161.237 390.731 160.998 390.929 160.801C391.127 160.604 391.367 160.505 391.648 160.505C391.935 160.505 392.174 160.604 392.367 160.801C392.565 160.993 392.664 161.232 392.664 161.517C392.664 161.803 392.565 162.044 392.367 162.241C392.174 162.433 391.935 162.53 391.648 162.53C391.367 162.53 391.127 162.431 390.929 162.234C390.731 162.036 390.632 161.798 390.632 161.517ZM399.447 160.801C399.249 160.998 399.15 161.237 399.15 161.517C399.15 161.798 399.249 162.036 399.447 162.234C399.645 162.431 399.884 162.53 400.165 162.53C400.452 162.53 400.692 162.433 400.884 162.241C401.082 162.044 401.181 161.803 401.181 161.517C401.181 161.232 401.082 160.993 400.884 160.801C400.692 160.604 400.452 160.505 400.165 160.505C399.884 160.505 399.645 160.604 399.447 160.801ZM402.979 161.517C402.979 161.237 403.077 160.998 403.275 160.801C403.473 160.604 403.713 160.505 403.994 160.505C404.281 160.505 404.521 160.604 404.713 160.801C404.911 160.993 405.01 161.232 405.01 161.517C405.01 161.803 404.911 162.044 404.713 162.241C404.521 162.433 404.281 162.53 403.994 162.53C403.713 162.53 403.473 162.431 403.275 162.234C403.077 162.036 402.979 161.798 402.979 161.517ZM407.104 160.801C406.906 160.998 406.807 161.237 406.807 161.517C406.807 161.798 406.906 162.036 407.104 162.234C407.302 162.431 407.542 162.53 407.823 162.53C408.11 162.53 408.349 162.433 408.542 162.241C408.74 162.044 408.839 161.803 408.839 161.517C408.839 161.232 408.74 160.993 408.542 160.801C408.349 160.604 408.11 160.505 407.823 160.505C407.542 160.505 407.302 160.604 407.104 160.801ZM410.636 161.517C410.636 161.237 410.735 160.998 410.933 160.801C411.131 160.604 411.371 160.505 411.652 160.505C411.939 160.505 412.178 160.604 412.371 160.801C412.569 160.993 412.668 161.232 412.668 161.517C412.668 161.803 412.569 162.044 412.371 162.241C412.178 162.433 411.939 162.53 411.652 162.53C411.371 162.53 411.131 162.431 410.933 162.234C410.735 162.036 410.636 161.798 410.636 161.517ZM419.451 160.801C419.253 160.998 419.154 161.237 419.154 161.517C419.154 161.798 419.253 162.036 419.451 162.234C419.649 162.431 419.888 162.53 420.17 162.53C420.456 162.53 420.696 162.433 420.888 162.241C421.086 162.044 421.185 161.803 421.185 161.517C421.185 161.232 421.086 160.993 420.888 160.801C420.696 160.604 420.456 160.505 420.17 160.505C419.888 160.505 419.649 160.604 419.451 160.801ZM422.983 161.517C422.983 161.237 423.082 160.998 423.28 160.801C423.478 160.604 423.717 160.505 423.998 160.505C424.285 160.505 424.525 160.604 424.717 160.801C424.915 160.993 425.014 161.232 425.014 161.517C425.014 161.803 424.915 162.044 424.717 162.241C424.525 162.433 424.285 162.53 423.998 162.53C423.717 162.53 423.478 162.431 423.28 162.234C423.082 162.036 422.983 161.798 422.983 161.517ZM431.75 157.452H426.851V158.823H431.75V157.452ZM433.594 161.517C433.594 161.237 433.693 160.998 433.891 160.801C434.089 160.604 434.329 160.505 434.61 160.505C434.897 160.505 435.136 160.604 435.329 160.801C435.527 160.993 435.626 161.232 435.626 161.517C435.626 161.803 435.527 162.044 435.329 162.241C435.136 162.433 434.897 162.53 434.61 162.53C434.329 162.53 434.089 162.431 433.891 162.234C433.693 162.036 433.594 161.798 433.594 161.517ZM442.408 160.801C442.211 160.998 442.112 161.237 442.112 161.517C442.112 161.798 442.211 162.036 442.408 162.234C442.606 162.431 442.846 162.53 443.127 162.53C443.414 162.53 443.654 162.433 443.846 162.241C444.044 162.044 444.143 161.803 444.143 161.517C444.143 161.232 444.044 160.993 443.846 160.801C443.654 160.604 443.414 160.505 443.127 160.505C442.846 160.505 442.606 160.604 442.408 160.801ZM450.629 161.517C450.629 161.237 450.728 160.998 450.926 160.801C451.124 160.604 451.363 160.505 451.645 160.505C451.931 160.505 452.171 160.604 452.364 160.801C452.562 160.993 452.661 161.232 452.661 161.517C452.661 161.803 452.562 162.044 452.364 162.241C452.171 162.433 451.931 162.53 451.645 162.53C451.363 162.53 451.124 162.431 450.926 162.234C450.728 162.036 450.629 161.798 450.629 161.517ZM454.755 160.801C454.557 160.998 454.458 161.237 454.458 161.517C454.458 161.798 454.557 162.036 454.755 162.234C454.953 162.431 455.192 162.53 455.474 162.53C455.76 162.53 456 162.433 456.193 162.241C456.391 162.044 456.489 161.803 456.489 161.517C456.489 161.232 456.391 160.993 456.193 160.801C456 160.604 455.76 160.505 455.474 160.505C455.192 160.505 454.953 160.604 454.755 160.801ZM458.287 161.517C458.287 161.237 458.386 160.998 458.584 160.801C458.782 160.604 459.021 160.505 459.303 160.505C459.589 160.505 459.829 160.604 460.021 160.801C460.219 160.993 460.318 161.232 460.318 161.517C460.318 161.803 460.219 162.044 460.021 162.241C459.829 162.433 459.589 162.53 459.303 162.53C459.021 162.53 458.782 162.431 458.584 162.234C458.386 162.036 458.287 161.798 458.287 161.517ZM471.743 157.452H466.843V158.823H471.743V157.452Z" fill="white"/>
</g>
<defs>
<filter id="filter0_d_285_80" x="-15.9" y="-16.9" width="614.954" height="234.603" filterUnits="userSpaceOnUse" color-interpolation-filters="sRGB">
<feFlood flood-opacity="0" result="BackgroundImageFix"/>
<feColorMatrix in="SourceAlpha" type="matrix" values="0 0 0 0 0 0 0 0 0 0 0 0 0 0 0 0 0 0 127 0" result="hardAlpha"/>
<feOffset dy="5"/>
<feGaussianBlur stdDeviation="15.95"/>
<feComposite in2="hardAlpha" operator="out"/>
<feColorMatrix type="matrix" values="0 0 0 0 0 0 0 0 0 0 0 0 0 0 0 0 0 0 1 0"/>
<feBlend mode="normal" in2="BackgroundImageFix" result="effect1_dropShadow_285_80"/>
<feBlend mode="normal" in="SourceGraphic" in2="effect1_dropShadow_285_80" result="shape"/>
</filter>
</defs>
</svg>
